G75*
%MOIN*%
%OFA0B0*%
%FSLAX24Y24*%
%IPPOS*%
%LPD*%
%AMOC8*
5,1,8,0,0,1.08239X$1,22.5*
%
%ADD10C,0.0000*%
%ADD11C,0.0060*%
%ADD12C,0.0050*%
%ADD13C,0.0080*%
%ADD14C,0.0040*%
%ADD15C,0.0020*%
%ADD16R,0.0050X0.0200*%
%ADD17C,0.0070*%
%ADD18C,0.0200*%
%ADD19R,0.0300X0.4200*%
%ADD20R,0.0200X0.0750*%
%ADD21R,0.0200X0.0300*%
D10*
X001100Y000333D02*
X001100Y020018D01*
X020785Y020018D01*
X020785Y000333D01*
X001100Y000333D01*
X001706Y003583D02*
X001708Y003622D01*
X001714Y003661D01*
X001724Y003699D01*
X001737Y003736D01*
X001754Y003771D01*
X001774Y003805D01*
X001798Y003836D01*
X001825Y003865D01*
X001854Y003891D01*
X001886Y003914D01*
X001920Y003934D01*
X001956Y003950D01*
X001993Y003962D01*
X002032Y003971D01*
X002071Y003976D01*
X002110Y003977D01*
X002149Y003974D01*
X002188Y003967D01*
X002225Y003956D01*
X002262Y003942D01*
X002297Y003924D01*
X002330Y003903D01*
X002361Y003878D01*
X002389Y003851D01*
X002414Y003821D01*
X002436Y003788D01*
X002455Y003754D01*
X002470Y003718D01*
X002482Y003680D01*
X002490Y003642D01*
X002494Y003603D01*
X002494Y003563D01*
X002490Y003524D01*
X002482Y003486D01*
X002470Y003448D01*
X002455Y003412D01*
X002436Y003378D01*
X002414Y003345D01*
X002389Y003315D01*
X002361Y003288D01*
X002330Y003263D01*
X002297Y003242D01*
X002262Y003224D01*
X002225Y003210D01*
X002188Y003199D01*
X002149Y003192D01*
X002110Y003189D01*
X002071Y003190D01*
X002032Y003195D01*
X001993Y003204D01*
X001956Y003216D01*
X001920Y003232D01*
X001886Y003252D01*
X001854Y003275D01*
X001825Y003301D01*
X001798Y003330D01*
X001774Y003361D01*
X001754Y003395D01*
X001737Y003430D01*
X001724Y003467D01*
X001714Y003505D01*
X001708Y003544D01*
X001706Y003583D01*
X001706Y019083D02*
X001708Y019122D01*
X001714Y019161D01*
X001724Y019199D01*
X001737Y019236D01*
X001754Y019271D01*
X001774Y019305D01*
X001798Y019336D01*
X001825Y019365D01*
X001854Y019391D01*
X001886Y019414D01*
X001920Y019434D01*
X001956Y019450D01*
X001993Y019462D01*
X002032Y019471D01*
X002071Y019476D01*
X002110Y019477D01*
X002149Y019474D01*
X002188Y019467D01*
X002225Y019456D01*
X002262Y019442D01*
X002297Y019424D01*
X002330Y019403D01*
X002361Y019378D01*
X002389Y019351D01*
X002414Y019321D01*
X002436Y019288D01*
X002455Y019254D01*
X002470Y019218D01*
X002482Y019180D01*
X002490Y019142D01*
X002494Y019103D01*
X002494Y019063D01*
X002490Y019024D01*
X002482Y018986D01*
X002470Y018948D01*
X002455Y018912D01*
X002436Y018878D01*
X002414Y018845D01*
X002389Y018815D01*
X002361Y018788D01*
X002330Y018763D01*
X002297Y018742D01*
X002262Y018724D01*
X002225Y018710D01*
X002188Y018699D01*
X002149Y018692D01*
X002110Y018689D01*
X002071Y018690D01*
X002032Y018695D01*
X001993Y018704D01*
X001956Y018716D01*
X001920Y018732D01*
X001886Y018752D01*
X001854Y018775D01*
X001825Y018801D01*
X001798Y018830D01*
X001774Y018861D01*
X001754Y018895D01*
X001737Y018930D01*
X001724Y018967D01*
X001714Y019005D01*
X001708Y019044D01*
X001706Y019083D01*
X019456Y018833D02*
X019458Y018872D01*
X019464Y018911D01*
X019474Y018949D01*
X019487Y018986D01*
X019504Y019021D01*
X019524Y019055D01*
X019548Y019086D01*
X019575Y019115D01*
X019604Y019141D01*
X019636Y019164D01*
X019670Y019184D01*
X019706Y019200D01*
X019743Y019212D01*
X019782Y019221D01*
X019821Y019226D01*
X019860Y019227D01*
X019899Y019224D01*
X019938Y019217D01*
X019975Y019206D01*
X020012Y019192D01*
X020047Y019174D01*
X020080Y019153D01*
X020111Y019128D01*
X020139Y019101D01*
X020164Y019071D01*
X020186Y019038D01*
X020205Y019004D01*
X020220Y018968D01*
X020232Y018930D01*
X020240Y018892D01*
X020244Y018853D01*
X020244Y018813D01*
X020240Y018774D01*
X020232Y018736D01*
X020220Y018698D01*
X020205Y018662D01*
X020186Y018628D01*
X020164Y018595D01*
X020139Y018565D01*
X020111Y018538D01*
X020080Y018513D01*
X020047Y018492D01*
X020012Y018474D01*
X019975Y018460D01*
X019938Y018449D01*
X019899Y018442D01*
X019860Y018439D01*
X019821Y018440D01*
X019782Y018445D01*
X019743Y018454D01*
X019706Y018466D01*
X019670Y018482D01*
X019636Y018502D01*
X019604Y018525D01*
X019575Y018551D01*
X019548Y018580D01*
X019524Y018611D01*
X019504Y018645D01*
X019487Y018680D01*
X019474Y018717D01*
X019464Y018755D01*
X019458Y018794D01*
X019456Y018833D01*
X019706Y001333D02*
X019708Y001372D01*
X019714Y001411D01*
X019724Y001449D01*
X019737Y001486D01*
X019754Y001521D01*
X019774Y001555D01*
X019798Y001586D01*
X019825Y001615D01*
X019854Y001641D01*
X019886Y001664D01*
X019920Y001684D01*
X019956Y001700D01*
X019993Y001712D01*
X020032Y001721D01*
X020071Y001726D01*
X020110Y001727D01*
X020149Y001724D01*
X020188Y001717D01*
X020225Y001706D01*
X020262Y001692D01*
X020297Y001674D01*
X020330Y001653D01*
X020361Y001628D01*
X020389Y001601D01*
X020414Y001571D01*
X020436Y001538D01*
X020455Y001504D01*
X020470Y001468D01*
X020482Y001430D01*
X020490Y001392D01*
X020494Y001353D01*
X020494Y001313D01*
X020490Y001274D01*
X020482Y001236D01*
X020470Y001198D01*
X020455Y001162D01*
X020436Y001128D01*
X020414Y001095D01*
X020389Y001065D01*
X020361Y001038D01*
X020330Y001013D01*
X020297Y000992D01*
X020262Y000974D01*
X020225Y000960D01*
X020188Y000949D01*
X020149Y000942D01*
X020110Y000939D01*
X020071Y000940D01*
X020032Y000945D01*
X019993Y000954D01*
X019956Y000966D01*
X019920Y000982D01*
X019886Y001002D01*
X019854Y001025D01*
X019825Y001051D01*
X019798Y001080D01*
X019774Y001111D01*
X019754Y001145D01*
X019737Y001180D01*
X019724Y001217D01*
X019714Y001255D01*
X019708Y001294D01*
X019706Y001333D01*
D11*
X019100Y002033D02*
X019050Y002033D01*
X019050Y002633D01*
X019100Y002633D01*
X019100Y003183D01*
X018900Y003333D01*
X018900Y003533D01*
X018900Y004133D01*
X018900Y004333D01*
X019100Y004483D01*
X019100Y009533D01*
X018700Y009533D01*
X018600Y009533D01*
X018600Y004133D01*
X018600Y003533D01*
X018600Y000833D01*
X016100Y000833D01*
X016100Y019833D01*
X018600Y019833D01*
X018600Y018133D01*
X018600Y017533D01*
X018600Y011133D01*
X018700Y011133D01*
X019100Y011133D01*
X019100Y009533D01*
X018600Y009533D02*
X018300Y009533D01*
X018300Y011133D01*
X018600Y011133D01*
X019100Y011133D02*
X019100Y017183D01*
X018900Y017333D01*
X018900Y017533D01*
X018900Y018133D01*
X018700Y018133D01*
X018600Y018133D01*
X018900Y018133D02*
X018900Y018333D01*
X019100Y018483D01*
X019100Y020333D01*
X015600Y020333D01*
X015600Y019833D01*
X015500Y019833D01*
X015500Y019333D01*
X015600Y019333D01*
X015600Y010583D01*
X015500Y010583D01*
X015500Y010083D01*
X015600Y010083D01*
X015600Y001333D01*
X015500Y001333D01*
X015500Y000833D01*
X015600Y000833D01*
X015600Y000333D01*
X019100Y000333D01*
X019100Y002033D01*
X018900Y003533D02*
X018700Y003533D01*
X018600Y003533D01*
X018600Y004133D02*
X018700Y004133D01*
X018900Y004133D01*
X014070Y005983D02*
X014070Y001683D01*
X014068Y001660D01*
X014063Y001637D01*
X014054Y001615D01*
X014041Y001595D01*
X014026Y001577D01*
X014008Y001562D01*
X013988Y001549D01*
X013966Y001540D01*
X013943Y001535D01*
X013920Y001533D01*
X011280Y001533D01*
X011257Y001535D01*
X011234Y001540D01*
X011212Y001549D01*
X011192Y001562D01*
X011174Y001577D01*
X011159Y001595D01*
X011146Y001615D01*
X011137Y001637D01*
X011132Y001660D01*
X011130Y001683D01*
X011130Y005983D01*
X011132Y006006D01*
X011137Y006029D01*
X011146Y006051D01*
X011159Y006071D01*
X011174Y006089D01*
X011192Y006104D01*
X011212Y006117D01*
X011234Y006126D01*
X011257Y006131D01*
X011280Y006133D01*
X012100Y006133D01*
X013100Y006133D01*
X013920Y006133D01*
X013943Y006131D01*
X013966Y006126D01*
X013988Y006117D01*
X014008Y006104D01*
X014026Y006089D01*
X014041Y006071D01*
X014054Y006051D01*
X014063Y006029D01*
X014068Y006006D01*
X014070Y005983D01*
X013100Y006133D02*
X013098Y006089D01*
X013092Y006046D01*
X013083Y006004D01*
X013070Y005962D01*
X013053Y005922D01*
X013033Y005883D01*
X013010Y005846D01*
X012983Y005812D01*
X012954Y005779D01*
X012921Y005750D01*
X012887Y005723D01*
X012850Y005700D01*
X012811Y005680D01*
X012771Y005663D01*
X012729Y005650D01*
X012687Y005641D01*
X012644Y005635D01*
X012600Y005633D01*
X012556Y005635D01*
X012513Y005641D01*
X012471Y005650D01*
X012429Y005663D01*
X012389Y005680D01*
X012350Y005700D01*
X012313Y005723D01*
X012279Y005750D01*
X012246Y005779D01*
X012217Y005812D01*
X012190Y005846D01*
X012167Y005883D01*
X012147Y005922D01*
X012130Y005962D01*
X012117Y006004D01*
X012108Y006046D01*
X012102Y006089D01*
X012100Y006133D01*
X009620Y006433D02*
X009618Y006456D01*
X009613Y006479D01*
X009604Y006501D01*
X009591Y006521D01*
X009576Y006539D01*
X009558Y006554D01*
X009538Y006567D01*
X009516Y006576D01*
X009493Y006581D01*
X009470Y006583D01*
X008230Y006583D01*
X008207Y006581D01*
X008184Y006576D01*
X008162Y006567D01*
X008142Y006554D01*
X008124Y006539D01*
X008109Y006521D01*
X008096Y006501D01*
X008087Y006479D01*
X008082Y006456D01*
X008080Y006433D01*
X009530Y009033D02*
X012170Y009033D01*
X012193Y009035D01*
X012216Y009040D01*
X012238Y009049D01*
X012258Y009062D01*
X012276Y009077D01*
X012291Y009095D01*
X012304Y009115D01*
X012313Y009137D01*
X012318Y009160D01*
X012320Y009183D01*
X012320Y013483D01*
X012318Y013506D01*
X012313Y013529D01*
X012304Y013551D01*
X012291Y013571D01*
X012276Y013589D01*
X012258Y013604D01*
X012238Y013617D01*
X012216Y013626D01*
X012193Y013631D01*
X012170Y013633D01*
X011350Y013633D01*
X010350Y013633D01*
X009530Y013633D01*
X009507Y013631D01*
X009484Y013626D01*
X009462Y013617D01*
X009442Y013604D01*
X009424Y013589D01*
X009409Y013571D01*
X009396Y013551D01*
X009387Y013529D01*
X009382Y013506D01*
X009380Y013483D01*
X009380Y009183D01*
X009382Y009160D01*
X009387Y009137D01*
X009396Y009115D01*
X009409Y009095D01*
X009424Y009077D01*
X009442Y009062D01*
X009462Y009049D01*
X009484Y009040D01*
X009507Y009035D01*
X009530Y009033D01*
X007720Y010083D02*
X007300Y010083D01*
X006900Y010083D01*
X006480Y010083D01*
X006457Y010085D01*
X006434Y010090D01*
X006412Y010099D01*
X006392Y010112D01*
X006374Y010127D01*
X006359Y010145D01*
X006346Y010165D01*
X006337Y010187D01*
X006332Y010210D01*
X006330Y010233D01*
X006900Y010083D02*
X006902Y010110D01*
X006907Y010137D01*
X006917Y010163D01*
X006929Y010187D01*
X006945Y010209D01*
X006963Y010229D01*
X006985Y010246D01*
X007008Y010261D01*
X007033Y010271D01*
X007059Y010279D01*
X007086Y010283D01*
X007114Y010283D01*
X007141Y010279D01*
X007167Y010271D01*
X007192Y010261D01*
X007215Y010246D01*
X007237Y010229D01*
X007255Y010209D01*
X007271Y010187D01*
X007283Y010163D01*
X007293Y010137D01*
X007298Y010110D01*
X007300Y010083D01*
X007720Y010083D02*
X007743Y010085D01*
X007766Y010090D01*
X007788Y010099D01*
X007808Y010112D01*
X007826Y010127D01*
X007841Y010145D01*
X007854Y010165D01*
X007863Y010187D01*
X007868Y010210D01*
X007870Y010233D01*
X010350Y013633D02*
X010352Y013589D01*
X010358Y013546D01*
X010367Y013504D01*
X010380Y013462D01*
X010397Y013422D01*
X010417Y013383D01*
X010440Y013346D01*
X010467Y013312D01*
X010496Y013279D01*
X010529Y013250D01*
X010563Y013223D01*
X010600Y013200D01*
X010639Y013180D01*
X010679Y013163D01*
X010721Y013150D01*
X010763Y013141D01*
X010806Y013135D01*
X010850Y013133D01*
X010894Y013135D01*
X010937Y013141D01*
X010979Y013150D01*
X011021Y013163D01*
X011061Y013180D01*
X011100Y013200D01*
X011137Y013223D01*
X011171Y013250D01*
X011204Y013279D01*
X011233Y013312D01*
X011260Y013346D01*
X011283Y013383D01*
X011303Y013422D01*
X011320Y013462D01*
X011333Y013504D01*
X011342Y013546D01*
X011348Y013589D01*
X011350Y013633D01*
X011100Y015333D02*
X010600Y015333D01*
X010350Y015583D01*
X010350Y016083D01*
X010600Y016333D01*
X011100Y016333D01*
X011350Y016083D01*
X011600Y016333D01*
X012100Y016333D01*
X012350Y016083D01*
X012350Y015583D01*
X012100Y015333D01*
X011600Y015333D01*
X011350Y015583D01*
X011100Y015333D01*
X011350Y015583D02*
X011350Y016083D01*
X010350Y016083D02*
X010100Y016333D01*
X009600Y016333D01*
X009350Y016083D01*
X009100Y016333D01*
X008600Y016333D01*
X008350Y016083D01*
X008100Y016333D01*
X007600Y016333D01*
X007350Y016083D01*
X007350Y015583D01*
X007600Y015333D01*
X008100Y015333D01*
X008350Y015583D01*
X008350Y016083D01*
X008350Y015583D02*
X008600Y015333D01*
X009100Y015333D01*
X009350Y015583D01*
X009350Y016083D01*
X009350Y015583D02*
X009600Y015333D01*
X010100Y015333D01*
X010350Y015583D01*
X007720Y014083D02*
X006480Y014083D01*
X006457Y014081D01*
X006434Y014076D01*
X006412Y014067D01*
X006392Y014054D01*
X006374Y014039D01*
X006359Y014021D01*
X006346Y014001D01*
X006337Y013979D01*
X006332Y013956D01*
X006330Y013933D01*
X007720Y014083D02*
X007743Y014081D01*
X007766Y014076D01*
X007788Y014067D01*
X007808Y014054D01*
X007826Y014039D01*
X007841Y014021D01*
X007854Y014001D01*
X007863Y013979D01*
X007868Y013956D01*
X007870Y013933D01*
X007600Y018083D02*
X013600Y018083D01*
X014600Y018083D01*
X014350Y018333D01*
X014600Y018083D02*
X014600Y019083D01*
X013600Y019083D01*
X007600Y019083D01*
X007600Y018083D01*
X013600Y018083D02*
X013600Y019083D01*
X013850Y018833D01*
X013850Y018333D02*
X013600Y018083D01*
X014350Y018833D02*
X014600Y019083D01*
X018600Y017533D02*
X018700Y017533D01*
X018900Y017533D01*
X019630Y016896D02*
X019630Y016469D01*
X019630Y016682D02*
X020270Y016682D01*
X020163Y016251D02*
X019736Y016251D01*
X019630Y016144D01*
X019630Y015931D01*
X019736Y015824D01*
X020163Y015824D01*
X020270Y015931D01*
X020270Y016144D01*
X020163Y016251D01*
X020163Y015607D02*
X019736Y015607D01*
X019630Y015500D01*
X019630Y015180D01*
X020270Y015180D01*
X020270Y015500D01*
X020163Y015607D01*
X019950Y014962D02*
X019736Y014962D01*
X019630Y014855D01*
X019630Y014535D01*
X020270Y014535D01*
X020057Y014535D02*
X020057Y014855D01*
X019950Y014962D01*
X020163Y014318D02*
X019630Y014318D01*
X019523Y014211D02*
X019416Y014211D01*
X019416Y013997D02*
X019523Y013997D01*
X019630Y013891D02*
X020163Y013891D01*
X020270Y013997D01*
X020270Y014211D01*
X020163Y014318D01*
X020270Y013673D02*
X020270Y013246D01*
X019630Y013246D01*
X019630Y013029D02*
X019630Y012601D01*
X020270Y012601D01*
X019950Y012601D02*
X019950Y012815D01*
X014900Y013333D02*
X013750Y013283D01*
X013650Y013183D01*
X013650Y009483D01*
X013750Y009383D01*
X014900Y009333D01*
X009620Y002733D02*
X009618Y002710D01*
X009613Y002687D01*
X009604Y002665D01*
X009591Y002645D01*
X009576Y002627D01*
X009558Y002612D01*
X009538Y002599D01*
X009516Y002590D01*
X009493Y002585D01*
X009470Y002583D01*
X009050Y002583D01*
X008650Y002583D01*
X008230Y002583D01*
X008207Y002585D01*
X008184Y002590D01*
X008162Y002599D01*
X008142Y002612D01*
X008124Y002627D01*
X008109Y002645D01*
X008096Y002665D01*
X008087Y002687D01*
X008082Y002710D01*
X008080Y002733D01*
X008100Y002083D02*
X008600Y002083D01*
X008850Y001833D01*
X008850Y001333D01*
X008600Y001083D01*
X008100Y001083D01*
X007850Y001333D01*
X007600Y001083D01*
X007100Y001083D01*
X006850Y001333D01*
X006850Y001833D01*
X007100Y002083D01*
X007600Y002083D01*
X007850Y001833D01*
X008100Y002083D01*
X007850Y001833D02*
X007850Y001333D01*
X006850Y001333D02*
X006600Y001083D01*
X006100Y001083D01*
X005850Y001333D01*
X005600Y001083D01*
X005100Y001083D01*
X004850Y001333D01*
X004600Y001083D01*
X004100Y001083D01*
X003850Y001333D01*
X003850Y001833D01*
X004100Y002083D01*
X004600Y002083D01*
X004850Y001833D01*
X005100Y002083D01*
X005600Y002083D01*
X005850Y001833D01*
X006100Y002083D01*
X006600Y002083D01*
X006850Y001833D01*
X005850Y001833D02*
X005850Y001333D01*
X004850Y001333D02*
X004850Y001833D01*
X003850Y001833D02*
X003600Y002083D01*
X003100Y002083D01*
X002850Y001833D01*
X002600Y002083D01*
X002100Y002083D01*
X001850Y001833D01*
X001850Y001333D01*
X002100Y001083D01*
X002600Y001083D01*
X002850Y001333D01*
X002850Y001833D01*
X002850Y001333D02*
X003100Y001083D01*
X003600Y001083D01*
X003850Y001333D01*
X008650Y002583D02*
X008652Y002610D01*
X008657Y002637D01*
X008667Y002663D01*
X008679Y002687D01*
X008695Y002709D01*
X008713Y002729D01*
X008735Y002746D01*
X008758Y002761D01*
X008783Y002771D01*
X008809Y002779D01*
X008836Y002783D01*
X008864Y002783D01*
X008891Y002779D01*
X008917Y002771D01*
X008942Y002761D01*
X008965Y002746D01*
X008987Y002729D01*
X009005Y002709D01*
X009021Y002687D01*
X009033Y002663D01*
X009043Y002637D01*
X009048Y002610D01*
X009050Y002583D01*
X003750Y008369D02*
X002810Y008369D01*
X000210Y008369D01*
X000130Y008369D01*
X000130Y012299D01*
X000210Y012299D01*
X002810Y012299D01*
X003750Y012299D01*
X003750Y008369D01*
X002810Y008369D02*
X002810Y008999D01*
X002810Y009699D02*
X002810Y010969D01*
X002810Y011669D02*
X002810Y012299D01*
X000530Y011319D02*
X000532Y011347D01*
X000538Y011374D01*
X000547Y011400D01*
X000560Y011425D01*
X000577Y011448D01*
X000596Y011468D01*
X000618Y011485D01*
X000642Y011499D01*
X000668Y011509D01*
X000695Y011516D01*
X000723Y011519D01*
X000751Y011518D01*
X000778Y011513D01*
X000805Y011504D01*
X000830Y011492D01*
X000853Y011477D01*
X000874Y011458D01*
X000892Y011437D01*
X000907Y011413D01*
X000918Y011387D01*
X000926Y011361D01*
X000930Y011333D01*
X000930Y011305D01*
X000926Y011277D01*
X000918Y011251D01*
X000907Y011225D01*
X000892Y011201D01*
X000874Y011180D01*
X000853Y011161D01*
X000830Y011146D01*
X000805Y011134D01*
X000778Y011125D01*
X000751Y011120D01*
X000723Y011119D01*
X000695Y011122D01*
X000668Y011129D01*
X000642Y011139D01*
X000618Y011153D01*
X000596Y011170D01*
X000577Y011190D01*
X000560Y011213D01*
X000547Y011238D01*
X000538Y011264D01*
X000532Y011291D01*
X000530Y011319D01*
X000210Y012299D02*
X000210Y008369D01*
X000530Y009349D02*
X000532Y009377D01*
X000538Y009404D01*
X000547Y009430D01*
X000560Y009455D01*
X000577Y009478D01*
X000596Y009498D01*
X000618Y009515D01*
X000642Y009529D01*
X000668Y009539D01*
X000695Y009546D01*
X000723Y009549D01*
X000751Y009548D01*
X000778Y009543D01*
X000805Y009534D01*
X000830Y009522D01*
X000853Y009507D01*
X000874Y009488D01*
X000892Y009467D01*
X000907Y009443D01*
X000918Y009417D01*
X000926Y009391D01*
X000930Y009363D01*
X000930Y009335D01*
X000926Y009307D01*
X000918Y009281D01*
X000907Y009255D01*
X000892Y009231D01*
X000874Y009210D01*
X000853Y009191D01*
X000830Y009176D01*
X000805Y009164D01*
X000778Y009155D01*
X000751Y009150D01*
X000723Y009149D01*
X000695Y009152D01*
X000668Y009159D01*
X000642Y009169D01*
X000618Y009183D01*
X000596Y009200D01*
X000577Y009220D01*
X000560Y009243D01*
X000547Y009268D01*
X000538Y009294D01*
X000532Y009321D01*
X000530Y009349D01*
D12*
X000875Y008724D02*
X001325Y008724D01*
X001325Y008574D02*
X001325Y008874D01*
X001025Y008574D02*
X000875Y008724D01*
X000950Y010524D02*
X000875Y010599D01*
X000875Y010749D01*
X000950Y010824D01*
X001025Y010824D01*
X001325Y010524D01*
X001325Y010824D01*
X003095Y009455D02*
X003545Y009455D01*
X003545Y009605D02*
X003545Y009304D01*
X003545Y009144D02*
X003095Y008844D01*
X003095Y009144D02*
X003545Y008844D01*
X003245Y009304D02*
X003095Y009455D01*
X006647Y009458D02*
X006797Y009458D01*
X006722Y009458D02*
X006722Y009909D01*
X006647Y009909D02*
X006797Y009909D01*
X006954Y009834D02*
X006954Y009533D01*
X007029Y009458D01*
X007179Y009458D01*
X007255Y009533D01*
X007415Y009684D02*
X007715Y009684D01*
X007640Y009909D02*
X007640Y009458D01*
X007415Y009684D02*
X007640Y009909D01*
X007255Y009834D02*
X007179Y009909D01*
X007029Y009909D01*
X006954Y009834D01*
X010036Y013683D02*
X010036Y014284D01*
X010111Y014209D02*
X010186Y014134D01*
X010111Y014209D02*
X009961Y014209D01*
X009885Y014134D01*
X009885Y014059D01*
X009961Y013984D01*
X010111Y013984D01*
X010186Y013908D01*
X010186Y013833D01*
X010111Y013758D01*
X009961Y013758D01*
X009885Y013833D01*
X009725Y013833D02*
X009725Y014209D01*
X009425Y014209D02*
X009425Y013833D01*
X009500Y013758D01*
X009650Y013758D01*
X009725Y013833D01*
X010346Y013833D02*
X010421Y013758D01*
X010571Y013758D01*
X010646Y013833D01*
X010646Y013908D01*
X010571Y013984D01*
X010496Y013984D01*
X010571Y013984D02*
X010646Y014059D01*
X010646Y014134D01*
X010571Y014209D01*
X010421Y014209D01*
X010346Y014134D01*
X011024Y014713D02*
X011099Y014638D01*
X011174Y014638D01*
X011249Y014713D01*
X011249Y015089D01*
X011174Y015089D02*
X011324Y015089D01*
X011484Y015089D02*
X011709Y015089D01*
X011785Y015014D01*
X011785Y014864D01*
X011709Y014788D01*
X011484Y014788D01*
X011484Y014638D02*
X011484Y015089D01*
X011945Y015014D02*
X012020Y015089D01*
X012170Y015089D01*
X012245Y015014D01*
X012245Y014939D01*
X011945Y014638D01*
X012245Y014638D01*
X013445Y013198D02*
X013445Y012898D01*
X013445Y013048D02*
X012995Y013048D01*
X013145Y012898D01*
X012995Y012738D02*
X012995Y012438D01*
X012995Y012588D02*
X013445Y012588D01*
X013465Y017358D02*
X013165Y017358D01*
X013465Y017659D01*
X013465Y017734D01*
X013390Y017809D01*
X013240Y017809D01*
X013165Y017734D01*
X013005Y017809D02*
X013005Y017358D01*
X012704Y017809D01*
X012704Y017358D01*
X012544Y017358D02*
X012394Y017508D01*
X012469Y017508D02*
X012244Y017508D01*
X012244Y017358D02*
X012244Y017809D01*
X012469Y017809D01*
X012544Y017734D01*
X012544Y017584D01*
X012469Y017508D01*
X018475Y010644D02*
X018700Y010419D01*
X018700Y010719D01*
X018925Y010644D02*
X018475Y010644D01*
X018550Y010259D02*
X018625Y010259D01*
X018700Y010184D01*
X018775Y010259D01*
X018850Y010259D01*
X018925Y010184D01*
X018925Y010033D01*
X018850Y009958D01*
X018700Y010108D02*
X018700Y010184D01*
X018550Y010259D02*
X018475Y010184D01*
X018475Y010033D01*
X018550Y009958D01*
X012246Y006709D02*
X012246Y006258D01*
X012096Y006258D02*
X012396Y006258D01*
X012096Y006559D02*
X012246Y006709D01*
X011936Y006634D02*
X011861Y006709D01*
X011711Y006709D01*
X011635Y006634D01*
X011635Y006559D01*
X011711Y006484D01*
X011861Y006484D01*
X011936Y006408D01*
X011936Y006333D01*
X011861Y006258D01*
X011711Y006258D01*
X011635Y006333D01*
X011475Y006333D02*
X011475Y006709D01*
X011175Y006709D02*
X011175Y006333D01*
X011250Y006258D01*
X011400Y006258D01*
X011475Y006333D01*
X011786Y006183D02*
X011786Y006784D01*
X009390Y002409D02*
X009240Y002409D01*
X009165Y002334D01*
X009005Y002334D02*
X008929Y002409D01*
X008779Y002409D01*
X008704Y002334D01*
X008704Y002033D01*
X008779Y001958D01*
X008929Y001958D01*
X009005Y002033D01*
X009165Y001958D02*
X009465Y002259D01*
X009465Y002334D01*
X009390Y002409D01*
X009465Y001958D02*
X009165Y001958D01*
X008547Y001958D02*
X008397Y001958D01*
X008472Y001958D02*
X008472Y002409D01*
X008397Y002409D02*
X008547Y002409D01*
X008595Y000839D02*
X008595Y000388D01*
X008445Y000388D02*
X008745Y000388D01*
X008445Y000689D02*
X008595Y000839D01*
X008285Y000764D02*
X008285Y000614D01*
X008209Y000538D01*
X007984Y000538D01*
X007984Y000388D02*
X007984Y000839D01*
X008209Y000839D01*
X008285Y000764D01*
X007824Y000839D02*
X007674Y000839D01*
X007749Y000839D02*
X007749Y000463D01*
X007674Y000388D01*
X007599Y000388D01*
X007524Y000463D01*
X016625Y001433D02*
X016700Y001358D01*
X016625Y001433D02*
X016625Y001584D01*
X016700Y001659D01*
X016775Y001659D01*
X017075Y001358D01*
X017075Y001659D01*
X017625Y001508D02*
X018075Y001508D01*
X018075Y001358D02*
X018075Y001659D01*
X017775Y001358D02*
X017625Y001508D01*
D13*
X004399Y015534D02*
X003533Y015534D01*
X002667Y015534D02*
X001801Y015534D01*
X001801Y017778D01*
X002155Y018133D01*
X002667Y018133D01*
X003533Y018133D02*
X004045Y018133D01*
X004399Y017778D01*
X004399Y015534D01*
X002726Y015672D02*
X002661Y015695D01*
X002598Y015721D01*
X002537Y015751D01*
X002477Y015785D01*
X002419Y015821D01*
X002363Y015861D01*
X002310Y015904D01*
X002259Y015950D01*
X002211Y015999D01*
X002166Y016050D01*
X002123Y016104D01*
X002084Y016160D01*
X002048Y016218D01*
X002015Y016279D01*
X001986Y016341D01*
X001960Y016404D01*
X001938Y016469D01*
X001919Y016535D01*
X001905Y016602D01*
X001894Y016669D01*
X001887Y016738D01*
X001883Y016806D01*
X001884Y016875D01*
X001888Y016943D01*
X001897Y017011D01*
X001909Y017078D01*
X001924Y017145D01*
X001944Y017211D01*
X001967Y017275D01*
X001994Y017338D01*
X002025Y017400D01*
X002058Y017459D01*
X002095Y017517D01*
X002136Y017572D01*
X002179Y017625D01*
X002225Y017676D01*
X002274Y017724D01*
X002326Y017769D01*
X002380Y017811D01*
X002436Y017850D01*
X002495Y017886D01*
X002555Y017918D01*
X002617Y017947D01*
X002681Y017973D01*
X002746Y017994D01*
X003474Y017994D02*
X003539Y017971D01*
X003602Y017945D01*
X003663Y017915D01*
X003723Y017881D01*
X003781Y017845D01*
X003837Y017805D01*
X003890Y017762D01*
X003941Y017716D01*
X003989Y017667D01*
X004034Y017616D01*
X004077Y017562D01*
X004116Y017506D01*
X004152Y017448D01*
X004185Y017387D01*
X004214Y017325D01*
X004240Y017262D01*
X004262Y017197D01*
X004281Y017131D01*
X004295Y017064D01*
X004306Y016997D01*
X004313Y016928D01*
X004317Y016860D01*
X004316Y016791D01*
X004312Y016723D01*
X004303Y016655D01*
X004291Y016588D01*
X004276Y016521D01*
X004256Y016455D01*
X004233Y016391D01*
X004206Y016328D01*
X004175Y016266D01*
X004142Y016207D01*
X004105Y016149D01*
X004064Y016094D01*
X004021Y016041D01*
X003975Y015990D01*
X003926Y015942D01*
X003874Y015897D01*
X003820Y015855D01*
X003764Y015816D01*
X003705Y015780D01*
X003645Y015748D01*
X003583Y015719D01*
X003519Y015693D01*
X003454Y015672D01*
D14*
X001651Y015595D02*
X001574Y015519D01*
X001267Y015519D01*
X001191Y015595D01*
X001191Y015749D01*
X001267Y015826D01*
X001344Y015979D02*
X001191Y016133D01*
X001651Y016133D01*
X001651Y016286D02*
X001651Y015979D01*
X001574Y015826D02*
X001651Y015749D01*
X001651Y015595D01*
X005620Y017759D02*
X005696Y017683D01*
X006003Y017683D01*
X006080Y017759D01*
X006080Y017913D01*
X006003Y017989D01*
X006080Y018143D02*
X005773Y018450D01*
X005696Y018450D01*
X005620Y018373D01*
X005620Y018220D01*
X005696Y018143D01*
X005696Y017989D02*
X005620Y017913D01*
X005620Y017759D01*
X006080Y018143D02*
X006080Y018450D01*
X006526Y014314D02*
X006449Y014237D01*
X006449Y013930D01*
X006526Y013853D01*
X006679Y013853D01*
X006756Y013930D01*
X006910Y013930D02*
X006910Y013853D01*
X006910Y013930D02*
X007217Y014237D01*
X007217Y014314D01*
X006910Y014314D01*
X006756Y014237D02*
X006679Y014314D01*
X006526Y014314D01*
X008026Y008314D02*
X007949Y008237D01*
X007949Y007930D01*
X008026Y007853D01*
X008179Y007853D01*
X008256Y007930D01*
X008410Y007930D02*
X008486Y007853D01*
X008640Y007853D01*
X008717Y007930D01*
X008717Y008007D01*
X008640Y008084D01*
X008410Y008084D01*
X008410Y007930D01*
X008410Y008084D02*
X008563Y008237D01*
X008717Y008314D01*
X008256Y008237D02*
X008179Y008314D01*
X008026Y008314D01*
X013449Y013853D02*
X013449Y014314D01*
X013679Y014314D01*
X013756Y014237D01*
X013756Y014084D01*
X013679Y014007D01*
X013449Y014007D01*
X013603Y014007D02*
X013756Y013853D01*
X013910Y013853D02*
X014217Y014160D01*
X014217Y014237D01*
X014140Y014314D01*
X013986Y014314D01*
X013910Y014237D01*
X013870Y014353D02*
X013870Y014814D01*
X014100Y014814D01*
X014177Y014737D01*
X014177Y014584D01*
X014100Y014507D01*
X013870Y014507D01*
X014024Y014507D02*
X014177Y014353D01*
X014330Y014353D02*
X014637Y014353D01*
X014484Y014353D02*
X014484Y014814D01*
X014330Y014660D01*
X014217Y013853D02*
X013910Y013853D01*
X014620Y016603D02*
X014620Y017064D01*
X014850Y017064D01*
X014927Y016987D01*
X014927Y016834D01*
X014850Y016757D01*
X014620Y016757D01*
X014774Y016757D02*
X014927Y016603D01*
X015080Y016680D02*
X015157Y016603D01*
X015311Y016603D01*
X015387Y016680D01*
X015387Y016757D01*
X015311Y016834D01*
X015234Y016834D01*
X015311Y016834D02*
X015387Y016910D01*
X015387Y016987D01*
X015311Y017064D01*
X015157Y017064D01*
X015080Y016987D01*
X009717Y001314D02*
X009410Y001314D01*
X009410Y001084D01*
X009563Y001160D01*
X009640Y001160D01*
X009717Y001084D01*
X009717Y000930D01*
X009640Y000853D01*
X009486Y000853D01*
X009410Y000930D01*
X009256Y000930D02*
X009179Y000853D01*
X009026Y000853D01*
X008949Y000930D01*
X008949Y001237D01*
X009026Y001314D01*
X009179Y001314D01*
X009256Y001237D01*
D15*
X009480Y002583D02*
X009480Y006583D01*
X011270Y006133D02*
X011270Y001533D01*
X016000Y000733D02*
X018700Y000733D01*
X018700Y003533D01*
X018700Y004133D02*
X018700Y009533D01*
X018700Y011133D02*
X018700Y017533D01*
X018700Y018133D02*
X018700Y019933D01*
X016000Y019933D01*
X016000Y000733D01*
X009520Y009033D02*
X009520Y013633D01*
X007730Y014083D02*
X007730Y010083D01*
D16*
X009355Y009833D03*
X009355Y010333D03*
X009355Y010833D03*
X009355Y011333D03*
X009355Y011833D03*
X009355Y012333D03*
X009355Y012833D03*
X009355Y013333D03*
X012345Y013333D03*
X012345Y012833D03*
X012345Y012333D03*
X012345Y011833D03*
X012345Y011333D03*
X012345Y010833D03*
X012345Y010333D03*
X012345Y009833D03*
X012345Y009333D03*
X009355Y009333D03*
X011105Y005833D03*
X011105Y005333D03*
X011105Y004833D03*
X011105Y004333D03*
X011105Y003833D03*
X011105Y003333D03*
X011105Y002833D03*
X011105Y002333D03*
X011105Y001833D03*
X014095Y001833D03*
X014095Y002333D03*
X014095Y002833D03*
X014095Y003333D03*
X014095Y003833D03*
X014095Y004333D03*
X014095Y004833D03*
X014095Y005333D03*
X014095Y005833D03*
D17*
X015315Y002078D02*
X015315Y001657D01*
X015315Y001868D02*
X014685Y001868D01*
X014895Y001657D01*
X015105Y001433D02*
X014685Y001433D01*
X015105Y001433D02*
X015315Y001223D01*
X015105Y001013D01*
X014685Y001013D01*
X014790Y000789D02*
X014685Y000684D01*
X014685Y000473D01*
X014790Y000368D01*
X014895Y000368D01*
X015000Y000473D01*
X015000Y000684D01*
X015105Y000789D01*
X015210Y000789D01*
X015315Y000684D01*
X015315Y000473D01*
X015210Y000368D01*
D18*
X013890Y013103D03*
D19*
X015200Y011333D03*
D20*
X014950Y013058D03*
X014950Y009608D03*
D21*
X014950Y010833D03*
X014950Y011833D03*
M02*
