G75*
%MOIN*%
%OFA0B0*%
%FSLAX24Y24*%
%IPPOS*%
%LPD*%
%AMOC8*
5,1,8,0,0,1.08239X$1,22.5*
%
%ADD10C,0.0000*%
%ADD11C,0.0705*%
%ADD12R,0.0630X0.1378*%
%ADD13R,0.0394X0.0433*%
%ADD14R,0.0800X0.0260*%
%ADD15R,0.0433X0.0394*%
%ADD16OC8,0.0560*%
%ADD17C,0.0600*%
%ADD18R,0.0512X0.0591*%
%ADD19C,0.0520*%
%ADD20C,0.0240*%
%ADD21C,0.0400*%
%ADD22C,0.0320*%
%ADD23OC8,0.0356*%
D10*
X001100Y000333D02*
X001100Y020018D01*
X020785Y020018D01*
X020785Y000333D01*
X001100Y000333D01*
X001706Y003583D02*
X001708Y003622D01*
X001714Y003661D01*
X001724Y003699D01*
X001737Y003736D01*
X001754Y003771D01*
X001774Y003805D01*
X001798Y003836D01*
X001825Y003865D01*
X001854Y003891D01*
X001886Y003914D01*
X001920Y003934D01*
X001956Y003950D01*
X001993Y003962D01*
X002032Y003971D01*
X002071Y003976D01*
X002110Y003977D01*
X002149Y003974D01*
X002188Y003967D01*
X002225Y003956D01*
X002262Y003942D01*
X002297Y003924D01*
X002330Y003903D01*
X002361Y003878D01*
X002389Y003851D01*
X002414Y003821D01*
X002436Y003788D01*
X002455Y003754D01*
X002470Y003718D01*
X002482Y003680D01*
X002490Y003642D01*
X002494Y003603D01*
X002494Y003563D01*
X002490Y003524D01*
X002482Y003486D01*
X002470Y003448D01*
X002455Y003412D01*
X002436Y003378D01*
X002414Y003345D01*
X002389Y003315D01*
X002361Y003288D01*
X002330Y003263D01*
X002297Y003242D01*
X002262Y003224D01*
X002225Y003210D01*
X002188Y003199D01*
X002149Y003192D01*
X002110Y003189D01*
X002071Y003190D01*
X002032Y003195D01*
X001993Y003204D01*
X001956Y003216D01*
X001920Y003232D01*
X001886Y003252D01*
X001854Y003275D01*
X001825Y003301D01*
X001798Y003330D01*
X001774Y003361D01*
X001754Y003395D01*
X001737Y003430D01*
X001724Y003467D01*
X001714Y003505D01*
X001708Y003544D01*
X001706Y003583D01*
X001706Y019083D02*
X001708Y019122D01*
X001714Y019161D01*
X001724Y019199D01*
X001737Y019236D01*
X001754Y019271D01*
X001774Y019305D01*
X001798Y019336D01*
X001825Y019365D01*
X001854Y019391D01*
X001886Y019414D01*
X001920Y019434D01*
X001956Y019450D01*
X001993Y019462D01*
X002032Y019471D01*
X002071Y019476D01*
X002110Y019477D01*
X002149Y019474D01*
X002188Y019467D01*
X002225Y019456D01*
X002262Y019442D01*
X002297Y019424D01*
X002330Y019403D01*
X002361Y019378D01*
X002389Y019351D01*
X002414Y019321D01*
X002436Y019288D01*
X002455Y019254D01*
X002470Y019218D01*
X002482Y019180D01*
X002490Y019142D01*
X002494Y019103D01*
X002494Y019063D01*
X002490Y019024D01*
X002482Y018986D01*
X002470Y018948D01*
X002455Y018912D01*
X002436Y018878D01*
X002414Y018845D01*
X002389Y018815D01*
X002361Y018788D01*
X002330Y018763D01*
X002297Y018742D01*
X002262Y018724D01*
X002225Y018710D01*
X002188Y018699D01*
X002149Y018692D01*
X002110Y018689D01*
X002071Y018690D01*
X002032Y018695D01*
X001993Y018704D01*
X001956Y018716D01*
X001920Y018732D01*
X001886Y018752D01*
X001854Y018775D01*
X001825Y018801D01*
X001798Y018830D01*
X001774Y018861D01*
X001754Y018895D01*
X001737Y018930D01*
X001724Y018967D01*
X001714Y019005D01*
X001708Y019044D01*
X001706Y019083D01*
X019456Y018833D02*
X019458Y018872D01*
X019464Y018911D01*
X019474Y018949D01*
X019487Y018986D01*
X019504Y019021D01*
X019524Y019055D01*
X019548Y019086D01*
X019575Y019115D01*
X019604Y019141D01*
X019636Y019164D01*
X019670Y019184D01*
X019706Y019200D01*
X019743Y019212D01*
X019782Y019221D01*
X019821Y019226D01*
X019860Y019227D01*
X019899Y019224D01*
X019938Y019217D01*
X019975Y019206D01*
X020012Y019192D01*
X020047Y019174D01*
X020080Y019153D01*
X020111Y019128D01*
X020139Y019101D01*
X020164Y019071D01*
X020186Y019038D01*
X020205Y019004D01*
X020220Y018968D01*
X020232Y018930D01*
X020240Y018892D01*
X020244Y018853D01*
X020244Y018813D01*
X020240Y018774D01*
X020232Y018736D01*
X020220Y018698D01*
X020205Y018662D01*
X020186Y018628D01*
X020164Y018595D01*
X020139Y018565D01*
X020111Y018538D01*
X020080Y018513D01*
X020047Y018492D01*
X020012Y018474D01*
X019975Y018460D01*
X019938Y018449D01*
X019899Y018442D01*
X019860Y018439D01*
X019821Y018440D01*
X019782Y018445D01*
X019743Y018454D01*
X019706Y018466D01*
X019670Y018482D01*
X019636Y018502D01*
X019604Y018525D01*
X019575Y018551D01*
X019548Y018580D01*
X019524Y018611D01*
X019504Y018645D01*
X019487Y018680D01*
X019474Y018717D01*
X019464Y018755D01*
X019458Y018794D01*
X019456Y018833D01*
X019706Y001333D02*
X019708Y001372D01*
X019714Y001411D01*
X019724Y001449D01*
X019737Y001486D01*
X019754Y001521D01*
X019774Y001555D01*
X019798Y001586D01*
X019825Y001615D01*
X019854Y001641D01*
X019886Y001664D01*
X019920Y001684D01*
X019956Y001700D01*
X019993Y001712D01*
X020032Y001721D01*
X020071Y001726D01*
X020110Y001727D01*
X020149Y001724D01*
X020188Y001717D01*
X020225Y001706D01*
X020262Y001692D01*
X020297Y001674D01*
X020330Y001653D01*
X020361Y001628D01*
X020389Y001601D01*
X020414Y001571D01*
X020436Y001538D01*
X020455Y001504D01*
X020470Y001468D01*
X020482Y001430D01*
X020490Y001392D01*
X020494Y001353D01*
X020494Y001313D01*
X020490Y001274D01*
X020482Y001236D01*
X020470Y001198D01*
X020455Y001162D01*
X020436Y001128D01*
X020414Y001095D01*
X020389Y001065D01*
X020361Y001038D01*
X020330Y001013D01*
X020297Y000992D01*
X020262Y000974D01*
X020225Y000960D01*
X020188Y000949D01*
X020149Y000942D01*
X020110Y000939D01*
X020071Y000940D01*
X020032Y000945D01*
X019993Y000954D01*
X019956Y000966D01*
X019920Y000982D01*
X019886Y001002D01*
X019854Y001025D01*
X019825Y001051D01*
X019798Y001080D01*
X019774Y001111D01*
X019754Y001145D01*
X019737Y001180D01*
X019724Y001217D01*
X019714Y001255D01*
X019708Y001294D01*
X019706Y001333D01*
D11*
X002453Y009349D02*
X001748Y009349D01*
X001748Y011318D02*
X002453Y011318D01*
D12*
X003100Y015770D03*
X003100Y017896D03*
D13*
X005350Y017999D03*
X005350Y018668D03*
D14*
X005890Y013833D03*
X005890Y013333D03*
X005890Y012833D03*
X005890Y012333D03*
X005890Y011833D03*
X005890Y011333D03*
X005890Y010833D03*
X005890Y010333D03*
X008310Y010333D03*
X008310Y010833D03*
X008310Y011333D03*
X008310Y011833D03*
X008310Y012333D03*
X008310Y012833D03*
X008310Y013333D03*
X008310Y013833D03*
X008920Y013333D03*
X008920Y012833D03*
X008920Y012333D03*
X008920Y011833D03*
X008920Y011333D03*
X008920Y010833D03*
X008920Y010333D03*
X008920Y009833D03*
X008920Y009333D03*
X010060Y006333D03*
X010060Y005833D03*
X010060Y005333D03*
X010060Y004833D03*
X010060Y004333D03*
X010060Y003833D03*
X010060Y003333D03*
X010060Y002833D03*
X010670Y002833D03*
X010670Y002333D03*
X010670Y001833D03*
X010670Y003333D03*
X010670Y003833D03*
X010670Y004333D03*
X010670Y004833D03*
X010670Y005333D03*
X010670Y005833D03*
X007640Y005833D03*
X007640Y005333D03*
X007640Y004833D03*
X007640Y004333D03*
X007640Y003833D03*
X007640Y003333D03*
X007640Y002833D03*
X007640Y006333D03*
X012780Y009333D03*
X012780Y009833D03*
X012780Y010333D03*
X012780Y010833D03*
X012780Y011333D03*
X012780Y011833D03*
X012780Y012333D03*
X012780Y012833D03*
X012780Y013333D03*
X014530Y005833D03*
X014530Y005333D03*
X014530Y004833D03*
X014530Y004333D03*
X014530Y003833D03*
X014530Y003333D03*
X014530Y002833D03*
X014530Y002333D03*
X014530Y001833D03*
D15*
X009935Y001583D03*
X009265Y001583D03*
X008935Y008583D03*
X008265Y008583D03*
X007435Y014583D03*
X006765Y014583D03*
D16*
X016850Y014333D03*
X016850Y015333D03*
X017850Y015333D03*
X017850Y014333D03*
X017850Y013333D03*
X017850Y012333D03*
X017850Y011333D03*
X017850Y010333D03*
X017850Y009333D03*
X017850Y008333D03*
X017850Y007333D03*
X017850Y006333D03*
X017850Y005333D03*
X017850Y004333D03*
X017850Y003333D03*
X017850Y002333D03*
X016850Y002333D03*
X016850Y003333D03*
X016850Y004333D03*
X016850Y005333D03*
X016850Y006333D03*
X016850Y007333D03*
X016850Y008333D03*
X016850Y009333D03*
X016850Y010333D03*
X016850Y011333D03*
X016850Y012333D03*
X016850Y013333D03*
X016850Y016333D03*
X017850Y016333D03*
X017850Y017333D03*
X016850Y017333D03*
X016850Y018333D03*
X017850Y018333D03*
D17*
X011850Y016133D02*
X011850Y015533D01*
X010850Y015533D02*
X010850Y016133D01*
X009850Y016133D02*
X009850Y015533D01*
X008850Y015533D02*
X008850Y016133D01*
X007850Y016133D02*
X007850Y015533D01*
X014050Y012333D02*
X014650Y012333D01*
X014650Y011333D02*
X014050Y011333D01*
X014050Y010333D02*
X014650Y010333D01*
X008350Y001883D02*
X008350Y001283D01*
X007350Y001283D02*
X007350Y001883D01*
X006350Y001883D02*
X006350Y001283D01*
X005350Y001283D02*
X005350Y001883D01*
X004350Y001883D02*
X004350Y001283D01*
X003350Y001283D02*
X003350Y001883D01*
X002350Y001883D02*
X002350Y001283D01*
D18*
X013726Y013833D03*
X014474Y013833D03*
X014474Y014833D03*
X013726Y014833D03*
X014476Y016083D03*
X015224Y016083D03*
D19*
X014100Y018323D02*
X014100Y018843D01*
X013100Y018843D02*
X013100Y018323D01*
X012100Y018323D02*
X012100Y018843D01*
X011100Y018843D02*
X011100Y018323D01*
X010100Y018323D02*
X010100Y018843D01*
X009100Y018843D02*
X009100Y018323D01*
X008100Y018323D02*
X008100Y018843D01*
D20*
X008100Y018583D02*
X007850Y018333D01*
X007850Y015833D01*
X008350Y015382D02*
X008409Y015239D01*
X008510Y015138D01*
X008510Y014766D01*
X008562Y014641D01*
X008657Y014545D01*
X009510Y013693D01*
X009510Y013584D01*
X009411Y013683D01*
X008930Y013683D01*
X008930Y014054D01*
X008801Y014183D01*
X008441Y014183D01*
X007871Y014753D01*
X007871Y014871D01*
X007742Y015000D01*
X007649Y015000D01*
X007638Y015026D01*
X007583Y015081D01*
X007747Y015013D01*
X007954Y015013D01*
X008145Y015092D01*
X008291Y015239D01*
X008350Y015382D01*
X008341Y015359D02*
X008360Y015359D01*
X008510Y015120D02*
X008172Y015120D01*
X007861Y014882D02*
X008510Y014882D01*
X008561Y014643D02*
X007981Y014643D01*
X008219Y014405D02*
X008798Y014405D01*
X008818Y014166D02*
X009036Y014166D01*
X008930Y013928D02*
X009275Y013928D01*
X009510Y013689D02*
X008930Y013689D01*
X008920Y013333D02*
X008310Y013333D01*
X008310Y013833D02*
X007560Y014583D01*
X007435Y014583D01*
X007350Y014668D01*
X007350Y014833D01*
X006850Y015333D01*
X006850Y016833D01*
X006430Y016790D02*
X005901Y016790D01*
X006024Y016913D02*
X006426Y016913D01*
X006430Y016909D01*
X006430Y016750D01*
X006494Y016595D01*
X006510Y016579D01*
X006510Y015266D01*
X006562Y015141D01*
X006657Y015045D01*
X006657Y015045D01*
X006702Y015000D01*
X006520Y015000D01*
X006464Y014985D01*
X006414Y014956D01*
X006373Y014915D01*
X006344Y014865D01*
X006329Y014809D01*
X006329Y014583D01*
X006329Y014358D01*
X006344Y014302D01*
X006373Y014251D01*
X006414Y014210D01*
X006464Y014181D01*
X006520Y014166D01*
X006765Y014166D01*
X006765Y014583D01*
X006329Y014583D01*
X006765Y014583D01*
X006765Y014583D01*
X006765Y014583D01*
X006765Y014166D01*
X007011Y014166D01*
X007067Y014181D01*
X007096Y014198D01*
X007127Y014166D01*
X007496Y014166D01*
X006398Y014166D01*
X006381Y014183D02*
X005399Y014183D01*
X005270Y014054D01*
X005270Y013612D01*
X005299Y013583D01*
X005270Y013554D01*
X005270Y013112D01*
X005299Y013083D01*
X005270Y013054D01*
X005270Y012612D01*
X005299Y012583D01*
X005270Y012554D01*
X005270Y012173D01*
X004782Y012173D01*
X004657Y012122D01*
X003907Y011372D01*
X003812Y011276D01*
X003760Y011151D01*
X003760Y009266D01*
X003812Y009141D01*
X004510Y008443D01*
X004510Y007974D01*
X003907Y007372D01*
X003812Y007276D01*
X003760Y007151D01*
X003760Y007056D01*
X003702Y006998D01*
X003702Y006668D01*
X003760Y006610D01*
X003760Y005016D01*
X003812Y004891D01*
X004010Y004693D01*
X004010Y004306D01*
X003952Y004248D01*
X003952Y003918D01*
X004185Y003685D01*
X004221Y003685D01*
X004157Y003622D01*
X004062Y003526D01*
X004010Y003401D01*
X004010Y002279D01*
X003909Y002178D01*
X003850Y002035D01*
X003791Y002178D01*
X003730Y002239D01*
X003730Y004409D01*
X003672Y004549D01*
X003480Y004741D01*
X003480Y010393D01*
X003422Y010533D01*
X002945Y011010D01*
X003025Y011204D01*
X003025Y011431D01*
X002938Y011642D01*
X002777Y011803D01*
X002566Y011890D01*
X002520Y011890D01*
X002520Y014159D01*
X002930Y014569D01*
X002930Y014500D01*
X002952Y014447D01*
X002952Y014418D01*
X002972Y014398D01*
X002994Y014345D01*
X003112Y014227D01*
X003165Y014205D01*
X003185Y014185D01*
X003214Y014185D01*
X003267Y014163D01*
X004434Y014163D01*
X004588Y014227D01*
X004706Y014345D01*
X005706Y015345D01*
X005770Y015500D01*
X005770Y016659D01*
X006024Y016913D01*
X006015Y017333D02*
X006100Y017333D01*
X006015Y017333D02*
X005350Y017999D01*
X004933Y017982D02*
X004730Y017982D01*
X004933Y018186D02*
X004933Y017691D01*
X005062Y017562D01*
X005306Y017562D01*
X005395Y017473D01*
X005112Y017189D01*
X004994Y017071D01*
X004930Y016917D01*
X004930Y015757D01*
X004176Y015003D01*
X003635Y015003D01*
X003635Y016550D01*
X003506Y016679D01*
X002694Y016679D01*
X002565Y016550D01*
X002565Y015392D01*
X001744Y014571D01*
X001680Y014417D01*
X001680Y011890D01*
X001634Y011890D01*
X001423Y011803D01*
X001320Y011700D01*
X001320Y019798D01*
X020565Y019798D01*
X020565Y001736D01*
X020448Y001854D01*
X020222Y001947D01*
X019978Y001947D01*
X019752Y001854D01*
X019580Y001681D01*
X019486Y001455D01*
X019486Y001211D01*
X019580Y000986D01*
X019752Y000813D01*
X019978Y000720D01*
X020222Y000720D01*
X020448Y000813D01*
X020565Y000930D01*
X020565Y000553D01*
X001320Y000553D01*
X001320Y008967D01*
X001423Y008864D01*
X001634Y008777D01*
X002566Y008777D01*
X002720Y008840D01*
X002720Y004508D01*
X002778Y004368D01*
X002885Y004261D01*
X002970Y004176D01*
X002970Y002239D01*
X002909Y002178D01*
X002849Y002032D01*
X002832Y002083D01*
X002795Y002156D01*
X002747Y002222D01*
X002689Y002280D01*
X002623Y002328D01*
X002550Y002365D01*
X002472Y002391D01*
X002391Y002403D01*
X002350Y002403D01*
X002309Y002403D01*
X002228Y002391D01*
X002150Y002365D01*
X002078Y002328D01*
X002011Y002280D01*
X001953Y002222D01*
X001905Y002156D01*
X001868Y002083D01*
X001843Y002005D01*
X001830Y001924D01*
X001830Y001583D01*
X001830Y001242D01*
X001843Y001162D01*
X001868Y001084D01*
X001905Y001011D01*
X001953Y000945D01*
X002011Y000887D01*
X002078Y000839D01*
X002150Y000801D01*
X002228Y000776D01*
X002309Y000763D01*
X002350Y000763D01*
X002350Y001583D01*
X002350Y001583D01*
X002350Y000763D01*
X002391Y000763D01*
X002472Y000776D01*
X002550Y000801D01*
X002623Y000839D01*
X002689Y000887D01*
X002747Y000945D01*
X002795Y001011D01*
X002832Y001084D01*
X002849Y001135D01*
X002909Y000989D01*
X003056Y000842D01*
X003247Y000763D01*
X003454Y000763D01*
X003645Y000842D01*
X003791Y000989D01*
X003850Y001132D01*
X003909Y000989D01*
X004056Y000842D01*
X004247Y000763D01*
X004454Y000763D01*
X004645Y000842D01*
X004791Y000989D01*
X004850Y001132D01*
X004909Y000989D01*
X005056Y000842D01*
X005247Y000763D01*
X005454Y000763D01*
X005645Y000842D01*
X005791Y000989D01*
X005850Y001132D01*
X005909Y000989D01*
X006056Y000842D01*
X006247Y000763D01*
X006454Y000763D01*
X006645Y000842D01*
X006791Y000989D01*
X006850Y001132D01*
X006909Y000989D01*
X007056Y000842D01*
X007247Y000763D01*
X007454Y000763D01*
X007645Y000842D01*
X007791Y000989D01*
X007850Y001132D01*
X007909Y000989D01*
X008056Y000842D01*
X008247Y000763D01*
X008454Y000763D01*
X008645Y000842D01*
X008791Y000989D01*
X008870Y001180D01*
X008870Y001256D01*
X008873Y001251D01*
X008914Y001210D01*
X008964Y001181D01*
X009020Y001166D01*
X009265Y001166D01*
X009265Y001583D01*
X009265Y001583D01*
X009265Y001166D01*
X009511Y001166D01*
X009567Y001181D01*
X009596Y001198D01*
X009627Y001166D01*
X009786Y001166D01*
X010157Y000795D01*
X010282Y000743D01*
X013848Y000743D01*
X013973Y000795D01*
X014530Y001353D01*
X014802Y001080D01*
X014927Y001028D01*
X018203Y001028D01*
X018328Y001080D01*
X019793Y002545D01*
X019888Y002641D01*
X019940Y002766D01*
X019940Y009860D01*
X019998Y009918D01*
X019998Y010248D01*
X019765Y010481D01*
X019435Y010481D01*
X019202Y010248D01*
X019202Y009918D01*
X019260Y009860D01*
X019260Y002974D01*
X017994Y001708D01*
X017706Y001708D01*
X017831Y001833D01*
X018057Y001833D01*
X018350Y002126D01*
X018350Y002540D01*
X018057Y002833D01*
X017831Y002833D01*
X018057Y002833D01*
X018350Y003126D01*
X018350Y003540D01*
X018057Y003833D01*
X017831Y003833D01*
X018057Y003833D01*
X018350Y004126D01*
X018350Y004540D01*
X018057Y004833D01*
X017831Y004833D01*
X018057Y004833D01*
X018350Y005126D01*
X018350Y005540D01*
X018057Y005833D01*
X017643Y005833D01*
X017350Y005540D01*
X017057Y005833D01*
X016831Y005833D01*
X016831Y005833D01*
X017057Y005833D01*
X017350Y006126D01*
X017643Y005833D01*
X018057Y005833D01*
X018350Y006126D01*
X018350Y006540D01*
X018057Y006833D01*
X017831Y006833D01*
X017831Y006833D01*
X018057Y006833D01*
X018350Y007126D01*
X018350Y007540D01*
X018057Y007833D01*
X017643Y007833D01*
X017350Y007540D01*
X017057Y007833D01*
X016643Y007833D01*
X016350Y007540D01*
X016350Y007173D01*
X016241Y007173D01*
X015690Y007724D01*
X015690Y008360D01*
X015748Y008418D01*
X015748Y008748D01*
X015515Y008981D01*
X015479Y008981D01*
X015491Y008993D01*
X016483Y008993D01*
X016643Y008833D01*
X016350Y008540D01*
X016350Y008126D01*
X016643Y007833D01*
X017057Y007833D01*
X017350Y008126D01*
X017350Y008540D01*
X017057Y008833D01*
X016643Y008833D01*
X017057Y008833D01*
X017350Y009126D01*
X017643Y008833D01*
X017350Y008540D01*
X017350Y008126D01*
X017643Y007833D01*
X018057Y007833D01*
X018350Y008126D01*
X018350Y008540D01*
X018057Y008833D01*
X017643Y008833D01*
X018057Y008833D01*
X018350Y009126D01*
X018350Y009540D01*
X018057Y009833D01*
X017831Y009833D01*
X017831Y009833D01*
X018057Y009833D01*
X018350Y010126D01*
X018350Y010540D01*
X018270Y010620D01*
X018270Y011046D01*
X018350Y011126D01*
X018350Y011540D01*
X018057Y011833D01*
X017643Y011833D01*
X017563Y011753D01*
X017137Y011753D01*
X017057Y011833D01*
X016643Y011833D01*
X016563Y011753D01*
X014965Y011753D01*
X014945Y011774D01*
X014802Y011833D01*
X014945Y011892D01*
X015091Y012039D01*
X015170Y012230D01*
X015170Y012437D01*
X015091Y012628D01*
X014945Y012774D01*
X014814Y012828D01*
X014814Y013318D01*
X014821Y013318D01*
X014950Y013447D01*
X014950Y014220D01*
X014836Y014333D01*
X014950Y014447D01*
X014950Y014493D01*
X015209Y014493D01*
X016350Y013353D01*
X016350Y013126D01*
X016643Y012833D01*
X016350Y012540D01*
X016350Y012126D01*
X016643Y011833D01*
X017057Y011833D01*
X017350Y012126D01*
X017350Y012540D01*
X017057Y012833D01*
X016643Y012833D01*
X017057Y012833D01*
X017350Y013126D01*
X017643Y012833D01*
X017350Y012540D01*
X017350Y012126D01*
X017643Y011833D01*
X018057Y011833D01*
X018350Y012126D01*
X018350Y012540D01*
X018057Y012833D01*
X017643Y012833D01*
X018057Y012833D01*
X018137Y012913D01*
X018434Y012913D01*
X018588Y012977D01*
X018706Y013095D01*
X018956Y013345D01*
X019020Y013500D01*
X019020Y016167D01*
X018956Y016321D01*
X018838Y016439D01*
X018588Y016689D01*
X018434Y016753D01*
X018137Y016753D01*
X018057Y016833D01*
X017690Y016833D01*
X017690Y016833D01*
X018057Y016833D01*
X018252Y017028D01*
X018293Y017045D01*
X018388Y017141D01*
X018888Y017641D01*
X018940Y017766D01*
X018940Y018651D01*
X018888Y018776D01*
X018793Y018872D01*
X018293Y019372D01*
X018168Y019423D01*
X016532Y019423D01*
X016407Y019372D01*
X016312Y019276D01*
X015407Y018372D01*
X015312Y018276D01*
X015260Y018151D01*
X015260Y017474D01*
X015209Y017423D01*
X013440Y017423D01*
X013440Y017985D01*
X013507Y018051D01*
X013580Y018228D01*
X013580Y018939D01*
X013507Y019115D01*
X013372Y019250D01*
X013196Y019323D01*
X013005Y019323D01*
X012828Y019250D01*
X012693Y019115D01*
X012620Y018939D01*
X012620Y018228D01*
X012693Y018051D01*
X012760Y017985D01*
X012760Y015224D01*
X012190Y014654D01*
X012190Y015138D01*
X012291Y015239D01*
X012370Y015430D01*
X012370Y016237D01*
X012291Y016428D01*
X012190Y016529D01*
X012190Y017843D01*
X012196Y017843D01*
X012372Y017916D01*
X012507Y018051D01*
X012580Y018228D01*
X012580Y018939D01*
X012507Y019115D01*
X012372Y019250D01*
X012196Y019323D01*
X012005Y019323D01*
X011828Y019250D01*
X011693Y019115D01*
X011620Y018939D01*
X011620Y018584D01*
X011580Y018544D01*
X011580Y018939D01*
X011507Y019115D01*
X011372Y019250D01*
X011196Y019323D01*
X011005Y019323D01*
X010828Y019250D01*
X010693Y019115D01*
X010620Y018939D01*
X010620Y018584D01*
X010580Y018544D01*
X010580Y018939D01*
X010507Y019115D01*
X010372Y019250D01*
X010196Y019323D01*
X010005Y019323D01*
X009828Y019250D01*
X009693Y019115D01*
X009620Y018939D01*
X009620Y018584D01*
X009580Y018544D01*
X009580Y018939D01*
X009507Y019115D01*
X009372Y019250D01*
X009196Y019323D01*
X009005Y019323D01*
X008828Y019250D01*
X008693Y019115D01*
X008620Y018939D01*
X008620Y018584D01*
X008580Y018544D01*
X008580Y018939D01*
X008507Y019115D01*
X008372Y019250D01*
X008196Y019323D01*
X008005Y019323D01*
X007828Y019250D01*
X007693Y019115D01*
X007620Y018939D01*
X007620Y018584D01*
X007562Y018526D01*
X007510Y018401D01*
X007510Y017231D01*
X007486Y017231D01*
X007434Y017253D01*
X007234Y017253D01*
X007206Y017321D01*
X006956Y017571D01*
X006838Y017689D01*
X006684Y017753D01*
X006076Y017753D01*
X005767Y018063D01*
X005767Y018103D01*
X005935Y017935D01*
X006265Y017935D01*
X006498Y018168D01*
X006498Y018498D01*
X006265Y018731D01*
X006183Y018731D01*
X005958Y018956D01*
X005833Y019008D01*
X005735Y019008D01*
X005638Y019105D01*
X005062Y019105D01*
X004966Y019008D01*
X004867Y019008D01*
X004742Y018956D01*
X004646Y018861D01*
X004022Y018236D01*
X003635Y018236D01*
X003635Y018676D01*
X003506Y018805D01*
X002694Y018805D01*
X002565Y018676D01*
X002565Y017116D01*
X002694Y016987D01*
X003506Y016987D01*
X003635Y017116D01*
X003635Y017556D01*
X004231Y017556D01*
X004356Y017608D01*
X004933Y018186D01*
X004933Y017744D02*
X004491Y017744D01*
X004163Y017896D02*
X004935Y018668D01*
X005350Y018668D01*
X005765Y018668D01*
X006100Y018333D01*
X005888Y017982D02*
X005847Y017982D01*
X006312Y017982D02*
X007510Y017982D01*
X007510Y017744D02*
X006707Y017744D01*
X007022Y017505D02*
X007510Y017505D01*
X007510Y017267D02*
X007229Y017267D01*
X007190Y016413D02*
X007403Y016413D01*
X007330Y016237D01*
X007330Y015430D01*
X007398Y015266D01*
X007190Y015474D01*
X007190Y016413D01*
X007190Y016313D02*
X007362Y016313D01*
X007330Y016074D02*
X007190Y016074D01*
X007190Y015836D02*
X007330Y015836D01*
X007330Y015597D02*
X007190Y015597D01*
X007305Y015359D02*
X007360Y015359D01*
X006765Y014937D02*
X006765Y014583D01*
X006765Y014168D01*
X006850Y014083D01*
X006765Y014405D02*
X006765Y014405D01*
X006765Y014583D02*
X006765Y014668D01*
X005975Y015458D01*
X003600Y013083D01*
X003600Y009083D01*
X004100Y008583D01*
X004272Y008681D02*
X003480Y008681D01*
X003480Y008919D02*
X004033Y008919D01*
X003805Y009158D02*
X003480Y009158D01*
X003480Y009396D02*
X003760Y009396D01*
X003760Y009635D02*
X003480Y009635D01*
X003480Y009873D02*
X003760Y009873D01*
X003760Y010112D02*
X003480Y010112D01*
X003480Y010350D02*
X003760Y010350D01*
X003760Y010589D02*
X003366Y010589D01*
X003128Y010827D02*
X003760Y010827D01*
X003760Y011066D02*
X002968Y011066D01*
X003025Y011304D02*
X003840Y011304D01*
X004079Y011543D02*
X002979Y011543D01*
X002798Y011781D02*
X004317Y011781D01*
X004556Y012020D02*
X002520Y012020D01*
X002520Y012258D02*
X005270Y012258D01*
X005270Y012497D02*
X002520Y012497D01*
X002520Y012735D02*
X005270Y012735D01*
X005270Y012974D02*
X002520Y012974D01*
X002520Y013212D02*
X005270Y013212D01*
X005270Y013451D02*
X002520Y013451D01*
X002520Y013689D02*
X005270Y013689D01*
X005270Y013928D02*
X002520Y013928D01*
X002527Y014166D02*
X003259Y014166D01*
X002966Y014405D02*
X002766Y014405D01*
X002293Y015120D02*
X001320Y015120D01*
X001320Y014882D02*
X002055Y014882D01*
X001816Y014643D02*
X001320Y014643D01*
X001320Y014405D02*
X001680Y014405D01*
X001680Y014166D02*
X001320Y014166D01*
X001320Y013928D02*
X001680Y013928D01*
X001680Y013689D02*
X001320Y013689D01*
X001320Y013451D02*
X001680Y013451D01*
X001680Y013212D02*
X001320Y013212D01*
X001320Y012974D02*
X001680Y012974D01*
X001680Y012735D02*
X001320Y012735D01*
X001320Y012497D02*
X001680Y012497D01*
X001680Y012258D02*
X001320Y012258D01*
X001320Y012020D02*
X001680Y012020D01*
X001402Y011781D02*
X001320Y011781D01*
X001320Y010935D02*
X001423Y010832D01*
X001634Y010745D01*
X002135Y010745D01*
X002720Y010160D01*
X002720Y009858D01*
X002566Y009922D01*
X001634Y009922D01*
X001423Y009834D01*
X001320Y009731D01*
X001320Y010935D01*
X001320Y010827D02*
X001435Y010827D01*
X001320Y010589D02*
X002291Y010589D01*
X002530Y010350D02*
X001320Y010350D01*
X001320Y010112D02*
X002720Y010112D01*
X002720Y009873D02*
X002683Y009873D01*
X001517Y009873D02*
X001320Y009873D01*
X001320Y008919D02*
X001368Y008919D01*
X001320Y008681D02*
X002720Y008681D01*
X002720Y008442D02*
X001320Y008442D01*
X001320Y008204D02*
X002720Y008204D01*
X002720Y007965D02*
X001320Y007965D01*
X001320Y007727D02*
X002720Y007727D01*
X002720Y007488D02*
X001320Y007488D01*
X001320Y007250D02*
X002720Y007250D01*
X002720Y007011D02*
X001320Y007011D01*
X001320Y006773D02*
X002720Y006773D01*
X002720Y006534D02*
X001320Y006534D01*
X001320Y006296D02*
X002720Y006296D01*
X002720Y006057D02*
X001320Y006057D01*
X001320Y005819D02*
X002720Y005819D01*
X002720Y005580D02*
X001320Y005580D01*
X001320Y005342D02*
X002720Y005342D01*
X002720Y005103D02*
X001320Y005103D01*
X001320Y004865D02*
X002720Y004865D01*
X002720Y004626D02*
X001320Y004626D01*
X001320Y004388D02*
X002770Y004388D01*
X002885Y004261D02*
X002885Y004261D01*
X002970Y004149D02*
X002337Y004149D01*
X002448Y004104D02*
X002222Y004197D01*
X001978Y004197D01*
X001752Y004104D01*
X001580Y003931D01*
X001486Y003705D01*
X001486Y003461D01*
X001580Y003236D01*
X001752Y003063D01*
X001978Y002970D01*
X002222Y002970D01*
X002448Y003063D01*
X002620Y003236D01*
X002714Y003461D01*
X002714Y003705D01*
X002620Y003931D01*
X002448Y004104D01*
X002629Y003911D02*
X002970Y003911D01*
X002970Y003672D02*
X002714Y003672D01*
X002702Y003434D02*
X002970Y003434D01*
X002970Y003195D02*
X002580Y003195D01*
X002970Y002957D02*
X001320Y002957D01*
X001320Y003195D02*
X001620Y003195D01*
X001498Y003434D02*
X001320Y003434D01*
X001320Y003672D02*
X001486Y003672D01*
X001571Y003911D02*
X001320Y003911D01*
X001320Y004149D02*
X001863Y004149D01*
X001320Y002718D02*
X002970Y002718D01*
X002970Y002480D02*
X001320Y002480D01*
X001320Y002241D02*
X001973Y002241D01*
X001843Y002003D02*
X001320Y002003D01*
X001320Y001764D02*
X001830Y001764D01*
X001830Y001583D02*
X002350Y001583D01*
X001830Y001583D01*
X001830Y001526D02*
X001320Y001526D01*
X001320Y001287D02*
X001830Y001287D01*
X001886Y001049D02*
X001320Y001049D01*
X001320Y000810D02*
X002133Y000810D01*
X002350Y000810D02*
X002350Y000810D01*
X002567Y000810D02*
X003133Y000810D01*
X002884Y001049D02*
X002814Y001049D01*
X002350Y001049D02*
X002350Y001049D01*
X002350Y001287D02*
X002350Y001287D01*
X002350Y001526D02*
X002350Y001526D01*
X002350Y001583D02*
X002350Y001583D01*
X002350Y002403D01*
X002350Y001583D01*
X002350Y001583D01*
X002350Y001764D02*
X002350Y001764D01*
X002350Y002003D02*
X002350Y002003D01*
X002350Y002241D02*
X002350Y002241D01*
X002727Y002241D02*
X002970Y002241D01*
X003730Y002241D02*
X003973Y002241D01*
X004010Y002480D02*
X003730Y002480D01*
X003730Y002718D02*
X004010Y002718D01*
X004010Y002957D02*
X003730Y002957D01*
X003730Y003195D02*
X004010Y003195D01*
X004024Y003434D02*
X003730Y003434D01*
X003730Y003672D02*
X004208Y003672D01*
X004157Y003622D02*
X004157Y003622D01*
X004350Y003333D02*
X004350Y001583D01*
X003884Y001049D02*
X003816Y001049D01*
X003567Y000810D02*
X004133Y000810D01*
X004567Y000810D02*
X005133Y000810D01*
X004884Y001049D02*
X004816Y001049D01*
X005567Y000810D02*
X006133Y000810D01*
X005884Y001049D02*
X005816Y001049D01*
X006567Y000810D02*
X007133Y000810D01*
X006884Y001049D02*
X006816Y001049D01*
X007567Y000810D02*
X008133Y000810D01*
X007884Y001049D02*
X007816Y001049D01*
X008567Y000810D02*
X010142Y000810D01*
X009904Y001049D02*
X008816Y001049D01*
X009265Y001287D02*
X009265Y001287D01*
X009265Y001526D02*
X009265Y001526D01*
X009265Y001583D02*
X009265Y001918D01*
X008350Y002833D01*
X007640Y002833D01*
X007640Y002833D01*
X007640Y002483D01*
X007211Y002483D01*
X007155Y002498D01*
X007105Y002527D01*
X007064Y002568D01*
X007035Y002618D01*
X007020Y002674D01*
X007020Y002833D01*
X007640Y002833D01*
X007640Y002483D01*
X008069Y002483D01*
X008125Y002498D01*
X008175Y002527D01*
X008216Y002568D01*
X008245Y002618D01*
X008260Y002674D01*
X008260Y002833D01*
X007640Y002833D01*
X007640Y002833D01*
X007640Y002833D01*
X007020Y002833D01*
X007020Y002992D01*
X007035Y003048D01*
X007053Y003079D01*
X007020Y003112D01*
X007020Y003493D01*
X006998Y003493D01*
X006998Y003168D01*
X006788Y002958D01*
X006998Y002748D01*
X006998Y002418D01*
X006774Y002195D01*
X006791Y002178D01*
X006850Y002035D01*
X006909Y002178D01*
X007056Y002324D01*
X007247Y002403D01*
X007454Y002403D01*
X007645Y002324D01*
X007791Y002178D01*
X007850Y002035D01*
X007909Y002178D01*
X008056Y002324D01*
X008247Y002403D01*
X008454Y002403D01*
X008645Y002324D01*
X008791Y002178D01*
X008870Y001987D01*
X008870Y001910D01*
X008873Y001915D01*
X008914Y001956D01*
X008964Y001985D01*
X009020Y002000D01*
X009265Y002000D01*
X009265Y001583D01*
X009265Y001583D01*
X009265Y002000D01*
X009511Y002000D01*
X009525Y001996D01*
X009407Y002045D01*
X009312Y002141D01*
X008459Y002993D01*
X008260Y002993D01*
X008260Y002992D01*
X008260Y002833D01*
X007640Y002833D01*
X007640Y002718D02*
X007640Y002718D01*
X007727Y002241D02*
X007973Y002241D01*
X008260Y002718D02*
X008734Y002718D01*
X008973Y002480D02*
X006998Y002480D01*
X006998Y002718D02*
X007020Y002718D01*
X007020Y002957D02*
X006790Y002957D01*
X006998Y003195D02*
X007020Y003195D01*
X007020Y003434D02*
X006998Y003434D01*
X006600Y003333D02*
X005100Y003333D01*
X004787Y003083D02*
X004702Y002998D01*
X004702Y002668D01*
X004935Y002435D01*
X005017Y002435D01*
X005062Y002391D01*
X005107Y002346D01*
X005056Y002324D01*
X004909Y002178D01*
X004850Y002035D01*
X004791Y002178D01*
X004690Y002279D01*
X004690Y003193D01*
X004702Y003204D01*
X004702Y003168D01*
X004787Y003083D01*
X004702Y003195D02*
X004693Y003195D01*
X004690Y002957D02*
X004702Y002957D01*
X004690Y002718D02*
X004702Y002718D01*
X004690Y002480D02*
X004891Y002480D01*
X005100Y002833D02*
X005350Y002583D01*
X006600Y002583D01*
X006377Y002923D02*
X006412Y002958D01*
X006377Y002993D01*
X005498Y002993D01*
X005498Y002923D01*
X006377Y002923D01*
X006411Y002957D02*
X005498Y002957D01*
X005725Y002243D02*
X005975Y002243D01*
X005909Y002178D01*
X005850Y002035D01*
X005791Y002178D01*
X005725Y002243D01*
X005727Y002241D02*
X005973Y002241D01*
X006821Y002241D02*
X006973Y002241D01*
X007640Y003333D02*
X008600Y003333D01*
X009600Y002333D01*
X010670Y002333D01*
X010670Y002833D02*
X010060Y002833D01*
X010060Y003333D02*
X010670Y003333D01*
X010670Y003833D02*
X010060Y003833D01*
X010060Y004333D02*
X010670Y004333D01*
X010670Y004833D02*
X010060Y004833D01*
X010060Y005333D02*
X010670Y005333D01*
X010670Y005833D02*
X010060Y005833D01*
X010060Y006333D02*
X010060Y006708D01*
X008935Y007833D01*
X008685Y007583D01*
X008100Y007583D01*
X008323Y007923D02*
X008265Y007981D01*
X007940Y007981D01*
X007940Y008195D01*
X007964Y008181D01*
X008020Y008166D01*
X008265Y008166D01*
X008265Y008583D01*
X008265Y008583D01*
X008265Y008166D01*
X008511Y008166D01*
X008567Y008181D01*
X008595Y008198D01*
X008595Y007974D01*
X008544Y007923D01*
X008323Y007923D01*
X008281Y007965D02*
X008586Y007965D01*
X008935Y007833D02*
X008935Y008583D01*
X013100Y008583D01*
X014350Y009833D01*
X014350Y010333D01*
X014802Y010833D02*
X014945Y010892D01*
X014965Y010913D01*
X016430Y010913D01*
X016430Y010620D01*
X016350Y010540D01*
X016350Y010173D01*
X015147Y010173D01*
X015170Y010230D01*
X015170Y010437D01*
X015091Y010628D01*
X014945Y010774D01*
X014802Y010833D01*
X014816Y010827D02*
X016430Y010827D01*
X016398Y010589D02*
X015107Y010589D01*
X015170Y010350D02*
X016350Y010350D01*
X017270Y010753D02*
X017270Y010913D01*
X017430Y010913D01*
X017430Y010753D01*
X017270Y010753D01*
X017270Y010827D02*
X017430Y010827D01*
X018270Y010827D02*
X020565Y010827D01*
X020565Y010589D02*
X018302Y010589D01*
X018350Y010350D02*
X019304Y010350D01*
X019202Y010112D02*
X018336Y010112D01*
X018097Y009873D02*
X019247Y009873D01*
X019260Y009635D02*
X018256Y009635D01*
X018350Y009396D02*
X019260Y009396D01*
X019260Y009158D02*
X018350Y009158D01*
X018143Y008919D02*
X019260Y008919D01*
X019260Y008681D02*
X018210Y008681D01*
X018350Y008442D02*
X019260Y008442D01*
X019260Y008204D02*
X018350Y008204D01*
X018189Y007965D02*
X019260Y007965D01*
X019260Y007727D02*
X018164Y007727D01*
X018350Y007488D02*
X019260Y007488D01*
X019260Y007250D02*
X018350Y007250D01*
X018235Y007011D02*
X019260Y007011D01*
X019260Y006773D02*
X018118Y006773D01*
X018350Y006534D02*
X019260Y006534D01*
X019260Y006296D02*
X018350Y006296D01*
X018281Y006057D02*
X019260Y006057D01*
X019260Y005819D02*
X018072Y005819D01*
X018310Y005580D02*
X019260Y005580D01*
X019260Y005342D02*
X018350Y005342D01*
X018327Y005103D02*
X019260Y005103D01*
X019260Y004865D02*
X018089Y004865D01*
X017831Y004833D02*
X017831Y004833D01*
X018264Y004626D02*
X019260Y004626D01*
X019260Y004388D02*
X018350Y004388D01*
X018350Y004149D02*
X019260Y004149D01*
X019260Y003911D02*
X018135Y003911D01*
X018218Y003672D02*
X019260Y003672D01*
X019260Y003434D02*
X018350Y003434D01*
X018350Y003195D02*
X019260Y003195D01*
X019243Y002957D02*
X018181Y002957D01*
X018172Y002718D02*
X019004Y002718D01*
X018766Y002480D02*
X018350Y002480D01*
X018350Y002241D02*
X018527Y002241D01*
X018289Y002003D02*
X018227Y002003D01*
X018050Y001764D02*
X017762Y001764D01*
X017350Y001833D02*
X017850Y002333D01*
X017350Y002314D02*
X017350Y002493D01*
X017350Y002493D01*
X017350Y002314D01*
X017350Y002314D01*
X017350Y002480D02*
X017350Y002480D01*
X017350Y002833D02*
X017850Y003333D01*
X017350Y003314D02*
X017350Y003493D01*
X017350Y003493D01*
X017350Y003314D01*
X017350Y003314D01*
X017350Y003434D02*
X017350Y003434D01*
X017350Y003833D02*
X017850Y004333D01*
X017350Y004314D02*
X017350Y004493D01*
X017350Y004493D01*
X017350Y004314D01*
X017350Y004314D01*
X017350Y004388D02*
X017350Y004388D01*
X017350Y004833D02*
X017850Y005333D01*
X017350Y005342D02*
X017350Y005342D01*
X017350Y005314D02*
X017350Y005314D01*
X017350Y005540D01*
X017350Y005314D01*
X017310Y005580D02*
X017390Y005580D01*
X017628Y005819D02*
X017072Y005819D01*
X017281Y006057D02*
X017419Y006057D01*
X017350Y006126D02*
X017350Y006353D01*
X017350Y006353D01*
X017350Y006126D01*
X017350Y006296D02*
X017350Y006296D01*
X017850Y006333D02*
X017350Y006833D01*
X016100Y006833D01*
X015350Y007583D01*
X015350Y008583D01*
X015577Y008919D02*
X016557Y008919D01*
X016490Y008681D02*
X015748Y008681D01*
X015748Y008442D02*
X016350Y008442D01*
X016350Y008204D02*
X015690Y008204D01*
X015690Y007965D02*
X016511Y007965D01*
X016536Y007727D02*
X015690Y007727D01*
X015926Y007488D02*
X016350Y007488D01*
X016350Y007250D02*
X016164Y007250D01*
X015680Y006773D02*
X015190Y006773D01*
X015190Y006766D02*
X015190Y007263D01*
X015812Y006641D01*
X015907Y006545D01*
X016032Y006493D01*
X016350Y006493D01*
X016350Y006173D01*
X015031Y006173D01*
X015021Y006183D01*
X014681Y006183D01*
X015138Y006641D01*
X015190Y006766D01*
X015190Y007011D02*
X015441Y007011D01*
X015203Y007250D02*
X015190Y007250D01*
X014850Y006833D02*
X014350Y006333D01*
X013350Y006333D01*
X013100Y006083D01*
X013100Y004833D01*
X013440Y005056D02*
X013440Y005943D01*
X013491Y005993D01*
X013910Y005993D01*
X013910Y005612D01*
X013939Y005583D01*
X013910Y005554D01*
X013910Y005112D01*
X013939Y005083D01*
X013910Y005054D01*
X013910Y004612D01*
X013939Y004583D01*
X013910Y004554D01*
X013910Y004112D01*
X013939Y004083D01*
X013910Y004054D01*
X013910Y003612D01*
X013939Y003583D01*
X013910Y003554D01*
X013910Y003112D01*
X013939Y003083D01*
X013910Y003054D01*
X013910Y002612D01*
X013939Y002583D01*
X013910Y002554D01*
X013910Y002112D01*
X013939Y002083D01*
X013910Y002054D01*
X013910Y001694D01*
X013639Y001423D01*
X010491Y001423D01*
X010431Y001483D01*
X011161Y001483D01*
X011171Y001493D01*
X011918Y001493D01*
X012043Y001545D01*
X012293Y001795D01*
X012388Y001891D01*
X012440Y002016D01*
X012440Y003935D01*
X012765Y003935D01*
X012998Y004168D01*
X012998Y004435D01*
X013265Y004435D01*
X013498Y004668D01*
X013498Y004998D01*
X013440Y005056D01*
X013440Y005103D02*
X013919Y005103D01*
X013910Y004865D02*
X013498Y004865D01*
X013456Y004626D02*
X013910Y004626D01*
X013910Y004388D02*
X012998Y004388D01*
X012979Y004149D02*
X013910Y004149D01*
X013910Y003911D02*
X012440Y003911D01*
X012440Y003672D02*
X013910Y003672D01*
X013910Y003434D02*
X012440Y003434D01*
X012440Y003195D02*
X013910Y003195D01*
X013910Y002957D02*
X012440Y002957D01*
X012440Y002718D02*
X013910Y002718D01*
X013910Y002480D02*
X012440Y002480D01*
X012440Y002241D02*
X013910Y002241D01*
X013910Y002003D02*
X012435Y002003D01*
X012262Y001764D02*
X013910Y001764D01*
X013742Y001526D02*
X011996Y001526D01*
X011850Y001833D02*
X012100Y002083D01*
X012100Y006083D01*
X011350Y006833D01*
X011350Y007833D01*
X011010Y007610D02*
X011010Y006766D01*
X011062Y006641D01*
X011157Y006545D01*
X011760Y005943D01*
X011760Y002224D01*
X011709Y002173D01*
X011290Y002173D01*
X011290Y002554D01*
X011261Y002583D01*
X011290Y002612D01*
X011290Y003054D01*
X011261Y003083D01*
X011290Y003112D01*
X011290Y003554D01*
X011261Y003583D01*
X011290Y003612D01*
X011290Y004054D01*
X011261Y004083D01*
X011290Y004112D01*
X011290Y004554D01*
X011261Y004583D01*
X011290Y004612D01*
X011290Y005054D01*
X011261Y005083D01*
X011290Y005112D01*
X011290Y005554D01*
X011261Y005583D01*
X011290Y005612D01*
X011290Y006054D01*
X011161Y006183D01*
X010680Y006183D01*
X010680Y006554D01*
X010551Y006683D01*
X010400Y006683D01*
X010400Y006776D01*
X010348Y006901D01*
X010253Y006996D01*
X010253Y006996D01*
X009275Y007974D01*
X009275Y008199D01*
X009319Y008243D01*
X013168Y008243D01*
X013293Y008295D01*
X013388Y008391D01*
X014010Y009013D01*
X014010Y007224D01*
X013959Y007173D01*
X013032Y007173D01*
X012907Y007122D01*
X012407Y006622D01*
X012312Y006526D01*
X012261Y006403D01*
X011690Y006974D01*
X011690Y007610D01*
X011748Y007668D01*
X011748Y007998D01*
X011515Y008231D01*
X011185Y008231D01*
X010952Y007998D01*
X010952Y007668D01*
X011010Y007610D01*
X011010Y007488D02*
X009761Y007488D01*
X009999Y007250D02*
X011010Y007250D01*
X011010Y007011D02*
X010238Y007011D01*
X010400Y006773D02*
X011010Y006773D01*
X011168Y006534D02*
X010680Y006534D01*
X010680Y006296D02*
X011407Y006296D01*
X011287Y006057D02*
X011645Y006057D01*
X011760Y005819D02*
X011290Y005819D01*
X011264Y005580D02*
X011760Y005580D01*
X011760Y005342D02*
X011290Y005342D01*
X011281Y005103D02*
X011760Y005103D01*
X011760Y004865D02*
X011290Y004865D01*
X011290Y004626D02*
X011760Y004626D01*
X011760Y004388D02*
X011290Y004388D01*
X011290Y004149D02*
X011760Y004149D01*
X011760Y003911D02*
X011290Y003911D01*
X011290Y003672D02*
X011760Y003672D01*
X011760Y003434D02*
X011290Y003434D01*
X011290Y003195D02*
X011760Y003195D01*
X011760Y002957D02*
X011290Y002957D01*
X011290Y002718D02*
X011760Y002718D01*
X011760Y002480D02*
X011290Y002480D01*
X011290Y002241D02*
X011760Y002241D01*
X011850Y001833D02*
X010670Y001833D01*
X009935Y001583D02*
X009935Y001499D01*
X010350Y001083D01*
X013780Y001083D01*
X014530Y001833D01*
X014995Y001368D01*
X018135Y001368D01*
X019600Y002833D01*
X019600Y010083D01*
X019896Y010350D02*
X020565Y010350D01*
X020565Y010112D02*
X019998Y010112D01*
X019953Y009873D02*
X020565Y009873D01*
X020565Y009635D02*
X019940Y009635D01*
X019940Y009396D02*
X020565Y009396D01*
X020565Y009158D02*
X019940Y009158D01*
X019940Y008919D02*
X020565Y008919D01*
X020565Y008681D02*
X019940Y008681D01*
X019940Y008442D02*
X020565Y008442D01*
X020565Y008204D02*
X019940Y008204D01*
X019940Y007965D02*
X020565Y007965D01*
X020565Y007727D02*
X019940Y007727D01*
X019940Y007488D02*
X020565Y007488D01*
X020565Y007250D02*
X019940Y007250D01*
X019940Y007011D02*
X020565Y007011D01*
X020565Y006773D02*
X019940Y006773D01*
X019940Y006534D02*
X020565Y006534D01*
X020565Y006296D02*
X019940Y006296D01*
X019940Y006057D02*
X020565Y006057D01*
X020565Y005819D02*
X019940Y005819D01*
X019940Y005580D02*
X020565Y005580D01*
X020565Y005342D02*
X019940Y005342D01*
X019940Y005103D02*
X020565Y005103D01*
X020565Y004865D02*
X019940Y004865D01*
X019940Y004626D02*
X020565Y004626D01*
X020565Y004388D02*
X019940Y004388D01*
X019940Y004149D02*
X020565Y004149D01*
X020565Y003911D02*
X019940Y003911D01*
X019940Y003672D02*
X020565Y003672D01*
X020565Y003434D02*
X019940Y003434D01*
X019940Y003195D02*
X020565Y003195D01*
X020565Y002957D02*
X019940Y002957D01*
X019920Y002718D02*
X020565Y002718D01*
X020565Y002480D02*
X019727Y002480D01*
X019489Y002241D02*
X020565Y002241D01*
X020565Y002003D02*
X019250Y002003D01*
X019012Y001764D02*
X019663Y001764D01*
X019516Y001526D02*
X018773Y001526D01*
X018535Y001287D02*
X019486Y001287D01*
X019554Y001049D02*
X018252Y001049D01*
X017350Y001833D02*
X016600Y001833D01*
X016100Y002333D01*
X014530Y002333D01*
X014530Y002833D02*
X016100Y002833D01*
X016600Y002333D01*
X016850Y002333D01*
X016600Y002833D02*
X017350Y002833D01*
X017831Y002833D02*
X017831Y002833D01*
X017831Y003833D02*
X017831Y003833D01*
X017350Y003833D02*
X016600Y003833D01*
X016100Y004333D01*
X014530Y004333D01*
X014530Y004833D02*
X016100Y004833D01*
X016600Y004333D01*
X016850Y004333D01*
X016600Y004833D02*
X017350Y004833D01*
X016850Y005333D02*
X016350Y005833D01*
X014530Y005833D01*
X014530Y005333D02*
X016100Y005333D01*
X016600Y004833D01*
X016100Y003833D02*
X016600Y003333D01*
X016850Y003333D01*
X016600Y002833D02*
X016100Y003333D01*
X014530Y003333D01*
X014530Y003833D02*
X016100Y003833D01*
X015959Y001993D02*
X015150Y001993D01*
X015150Y001708D01*
X016244Y001708D01*
X015959Y001993D01*
X016188Y001764D02*
X015150Y001764D01*
X014595Y001287D02*
X014465Y001287D01*
X014226Y001049D02*
X014878Y001049D01*
X013988Y000810D02*
X019759Y000810D01*
X020441Y000810D02*
X020565Y000810D01*
X020565Y000572D02*
X001320Y000572D01*
X004350Y003333D02*
X004850Y003833D01*
X007640Y003833D01*
X007640Y004333D02*
X004850Y004333D01*
X004350Y004833D01*
X004350Y004083D01*
X003952Y004149D02*
X003730Y004149D01*
X003730Y003911D02*
X003960Y003911D01*
X004010Y004388D02*
X003730Y004388D01*
X003594Y004626D02*
X004010Y004626D01*
X003838Y004865D02*
X003480Y004865D01*
X003480Y005103D02*
X003760Y005103D01*
X003760Y005342D02*
X003480Y005342D01*
X003480Y005580D02*
X003760Y005580D01*
X003760Y005819D02*
X003480Y005819D01*
X003480Y006057D02*
X003760Y006057D01*
X003760Y006296D02*
X003480Y006296D01*
X003480Y006534D02*
X003760Y006534D01*
X003702Y006773D02*
X003480Y006773D01*
X003480Y007011D02*
X003715Y007011D01*
X003801Y007250D02*
X003480Y007250D01*
X003480Y007488D02*
X004024Y007488D01*
X004263Y007727D02*
X003480Y007727D01*
X003480Y007965D02*
X004501Y007965D01*
X004510Y008204D02*
X003480Y008204D01*
X003480Y008442D02*
X004510Y008442D01*
X004850Y008583D02*
X004850Y007833D01*
X004100Y007083D01*
X004100Y006833D01*
X004100Y005083D01*
X004350Y004833D01*
X004600Y005333D02*
X004850Y005083D01*
X005195Y004865D02*
X005338Y004865D01*
X005248Y004918D02*
X005248Y004954D01*
X005529Y004673D01*
X004991Y004673D01*
X004979Y004685D01*
X005015Y004685D01*
X005248Y004918D01*
X005850Y004833D02*
X005100Y005583D01*
X005100Y006333D01*
X005100Y006583D01*
X006600Y008083D01*
X006600Y012083D01*
X006350Y012333D01*
X005890Y012333D01*
X005890Y012833D02*
X006600Y012833D01*
X007100Y012333D01*
X007100Y007833D01*
X005850Y006583D01*
X005850Y005833D01*
X006350Y005333D01*
X007640Y005333D01*
X007640Y005833D02*
X008350Y005833D01*
X009100Y005083D01*
X009100Y004083D01*
X009440Y003860D02*
X009265Y003685D01*
X008935Y003685D01*
X008702Y003918D01*
X008702Y004248D01*
X008760Y004306D01*
X008760Y004943D01*
X008260Y005443D01*
X008260Y005112D01*
X008231Y005083D01*
X008260Y005054D01*
X008260Y004612D01*
X008231Y004583D01*
X008260Y004554D01*
X008260Y004112D01*
X008231Y004083D01*
X008260Y004054D01*
X008260Y003673D01*
X008532Y003673D01*
X008668Y003673D01*
X008793Y003622D01*
X009440Y002974D01*
X009440Y003054D01*
X009469Y003083D01*
X009440Y003112D01*
X009440Y003554D01*
X009469Y003583D01*
X009440Y003612D01*
X009440Y003860D01*
X009440Y003672D02*
X008670Y003672D01*
X008980Y003434D02*
X009440Y003434D01*
X009440Y003195D02*
X009219Y003195D01*
X008496Y002957D02*
X008260Y002957D01*
X008727Y002241D02*
X009211Y002241D01*
X009510Y002003D02*
X008863Y002003D01*
X009265Y001764D02*
X009265Y001764D01*
X009536Y001993D02*
X009620Y001993D01*
X009596Y001969D01*
X009567Y001985D01*
X009536Y001993D01*
X008710Y003911D02*
X008260Y003911D01*
X008260Y004149D02*
X008702Y004149D01*
X008760Y004388D02*
X008260Y004388D01*
X008260Y004626D02*
X008760Y004626D01*
X008760Y004865D02*
X008260Y004865D01*
X008251Y005103D02*
X008599Y005103D01*
X008361Y005342D02*
X008260Y005342D01*
X008845Y005819D02*
X009440Y005819D01*
X009440Y005612D02*
X009469Y005583D01*
X009440Y005554D01*
X009440Y005112D01*
X009469Y005083D01*
X009440Y005054D01*
X009440Y004612D01*
X009469Y004583D01*
X009440Y004554D01*
X009440Y004306D01*
X009440Y004306D01*
X009440Y005151D01*
X009388Y005276D01*
X009293Y005372D01*
X008543Y006122D01*
X008418Y006173D01*
X008260Y006173D01*
X008260Y006554D01*
X008131Y006683D01*
X007998Y006683D01*
X007998Y006998D01*
X007765Y007231D01*
X007729Y007231D01*
X007809Y007311D01*
X007935Y007185D01*
X008265Y007185D01*
X008323Y007243D01*
X008752Y007243D01*
X008877Y007295D01*
X008935Y007353D01*
X009604Y006683D01*
X009569Y006683D01*
X009440Y006554D01*
X009440Y006112D01*
X009469Y006083D01*
X009440Y006054D01*
X009440Y005612D01*
X009466Y005580D02*
X009084Y005580D01*
X009322Y005342D02*
X009440Y005342D01*
X009440Y005103D02*
X009449Y005103D01*
X009440Y004865D02*
X009440Y004865D01*
X009440Y004626D02*
X009440Y004626D01*
X009440Y004388D02*
X009440Y004388D01*
X009443Y006057D02*
X008607Y006057D01*
X008260Y006296D02*
X009440Y006296D01*
X009440Y006534D02*
X008260Y006534D01*
X007998Y006773D02*
X009514Y006773D01*
X009276Y007011D02*
X007985Y007011D01*
X007871Y007250D02*
X007747Y007250D01*
X007600Y007583D02*
X006850Y006833D01*
X006850Y006083D01*
X007100Y005833D01*
X007640Y005833D01*
X007640Y006333D02*
X007600Y006373D01*
X007600Y006833D01*
X007202Y006704D02*
X007202Y006683D01*
X007190Y006683D01*
X007190Y006693D01*
X007202Y006704D01*
X006510Y006763D02*
X006510Y006016D01*
X006562Y005891D01*
X006779Y005673D01*
X006491Y005673D01*
X006248Y005916D01*
X006248Y005998D01*
X006190Y006056D01*
X006190Y006443D01*
X006510Y006763D01*
X006510Y006534D02*
X006282Y006534D01*
X006190Y006296D02*
X006510Y006296D01*
X006510Y006057D02*
X006190Y006057D01*
X006345Y005819D02*
X006634Y005819D01*
X006029Y005173D02*
X005991Y005173D01*
X005729Y005435D01*
X005767Y005435D01*
X006029Y005173D01*
X005861Y005342D02*
X005822Y005342D01*
X005452Y005712D02*
X005440Y005724D01*
X005440Y006110D01*
X005498Y006168D01*
X005498Y006498D01*
X005497Y006499D01*
X005510Y006513D01*
X005510Y006056D01*
X005452Y005998D01*
X005452Y005712D01*
X005440Y005819D02*
X005452Y005819D01*
X005440Y006057D02*
X005510Y006057D01*
X005498Y006296D02*
X005510Y006296D01*
X004600Y006833D02*
X004600Y005333D01*
X005850Y004833D02*
X007640Y004833D01*
X008768Y007250D02*
X009037Y007250D01*
X009522Y007727D02*
X010952Y007727D01*
X010952Y007965D02*
X009284Y007965D01*
X009280Y008204D02*
X011158Y008204D01*
X011543Y008204D02*
X014010Y008204D01*
X014010Y008442D02*
X013440Y008442D01*
X013388Y008391D02*
X013388Y008391D01*
X013678Y008681D02*
X014010Y008681D01*
X014010Y008919D02*
X013917Y008919D01*
X014350Y009083D02*
X014350Y007083D01*
X014100Y006833D01*
X013100Y006833D01*
X012600Y006333D01*
X012600Y004333D01*
X013440Y005342D02*
X013910Y005342D01*
X013936Y005580D02*
X013440Y005580D01*
X013440Y005819D02*
X013910Y005819D01*
X014793Y006296D02*
X016350Y006296D01*
X015933Y006534D02*
X015032Y006534D01*
X014850Y006833D02*
X014850Y008833D01*
X015350Y009333D01*
X016850Y009333D01*
X017143Y008919D02*
X017557Y008919D01*
X017490Y008681D02*
X017210Y008681D01*
X017350Y008442D02*
X017350Y008442D01*
X017350Y008204D02*
X017350Y008204D01*
X017189Y007965D02*
X017511Y007965D01*
X017536Y007727D02*
X017164Y007727D01*
X017350Y007540D02*
X017350Y007173D01*
X017350Y007173D01*
X017350Y007540D01*
X017350Y007488D02*
X017350Y007488D01*
X017350Y007250D02*
X017350Y007250D01*
X017350Y009126D02*
X017350Y009353D01*
X017350Y009353D01*
X017350Y009126D01*
X017350Y009158D02*
X017350Y009158D01*
X017850Y009333D02*
X017350Y009833D01*
X015100Y009833D01*
X014350Y009083D01*
X013671Y009635D02*
X013400Y009635D01*
X013400Y009612D02*
X013400Y010054D01*
X013371Y010083D01*
X013400Y010112D01*
X013400Y010554D01*
X013371Y010583D01*
X013400Y010612D01*
X013400Y011054D01*
X013371Y011083D01*
X013400Y011112D01*
X013400Y011554D01*
X013371Y011583D01*
X013400Y011612D01*
X013400Y012054D01*
X013371Y012083D01*
X013400Y012112D01*
X013400Y012493D01*
X013554Y012493D01*
X013530Y012437D01*
X013530Y012230D01*
X013609Y012039D01*
X013756Y011892D01*
X013898Y011833D01*
X013756Y011774D01*
X013609Y011628D01*
X013530Y011437D01*
X013530Y011230D01*
X013609Y011039D01*
X013756Y010892D01*
X013898Y010833D01*
X013756Y010774D01*
X013609Y010628D01*
X013530Y010437D01*
X013530Y010230D01*
X013609Y010039D01*
X013756Y009892D01*
X013878Y009842D01*
X013400Y009364D01*
X013400Y009554D01*
X013371Y009583D01*
X013400Y009612D01*
X013400Y009396D02*
X013432Y009396D01*
X013019Y008983D02*
X012959Y008923D01*
X009319Y008923D01*
X009260Y008982D01*
X009260Y008983D01*
X009411Y008983D01*
X009540Y009112D01*
X009540Y009554D01*
X009511Y009583D01*
X009540Y009612D01*
X009540Y010054D01*
X009511Y010083D01*
X009540Y010112D01*
X009540Y010554D01*
X009511Y010583D01*
X009540Y010612D01*
X009540Y011054D01*
X009511Y011083D01*
X009540Y011112D01*
X009540Y011554D01*
X009511Y011583D01*
X009540Y011612D01*
X009540Y011693D01*
X009562Y011641D01*
X009657Y011545D01*
X011029Y010173D01*
X010741Y010173D01*
X010498Y010416D01*
X010498Y010498D01*
X010265Y010731D01*
X009935Y010731D01*
X009702Y010498D01*
X009702Y010168D01*
X009935Y009935D01*
X010017Y009935D01*
X010407Y009545D01*
X010532Y009493D01*
X010912Y009493D01*
X010912Y009209D01*
X011145Y008976D01*
X011475Y008976D01*
X011492Y008993D01*
X012279Y008993D01*
X012289Y008983D01*
X013019Y008983D01*
X012780Y009333D02*
X011350Y009333D01*
X011310Y009374D01*
X010963Y009158D02*
X009540Y009158D01*
X009540Y009396D02*
X010912Y009396D01*
X010600Y009833D02*
X010100Y010333D01*
X009702Y010350D02*
X009540Y010350D01*
X009540Y010112D02*
X009759Y010112D01*
X009540Y009873D02*
X010079Y009873D01*
X010318Y009635D02*
X009540Y009635D01*
X008920Y009833D02*
X008100Y009833D01*
X008300Y009470D02*
X008300Y009112D01*
X008412Y009000D01*
X008265Y009000D01*
X008020Y009000D01*
X007964Y008985D01*
X007940Y008971D01*
X007940Y009435D01*
X008265Y009435D01*
X008300Y009470D01*
X008300Y009396D02*
X007940Y009396D01*
X008100Y009333D02*
X008100Y008749D01*
X008265Y008583D01*
X008265Y009000D01*
X008265Y008583D01*
X008265Y008583D01*
X008265Y008681D02*
X008265Y008681D01*
X008265Y008919D02*
X008265Y008919D01*
X008300Y009158D02*
X007940Y009158D01*
X008570Y008983D02*
X008580Y008978D01*
X008580Y008983D01*
X008570Y008983D01*
X008920Y009333D02*
X008920Y008598D01*
X008935Y008583D01*
X008265Y008442D02*
X008265Y008442D01*
X008265Y008204D02*
X008265Y008204D01*
X007600Y007583D02*
X007600Y012833D01*
X007100Y013333D01*
X005890Y013333D01*
X006510Y013673D02*
X006510Y014054D01*
X006381Y014183D01*
X006329Y014405D02*
X004766Y014405D01*
X005004Y014643D02*
X006329Y014643D01*
X006354Y014882D02*
X005243Y014882D01*
X005481Y015120D02*
X006582Y015120D01*
X006765Y014937D02*
X006765Y014937D01*
X006765Y014583D01*
X006765Y014583D01*
X006765Y014643D02*
X006765Y014643D01*
X006765Y014882D02*
X006765Y014882D01*
X006510Y015359D02*
X005712Y015359D01*
X005770Y015597D02*
X006510Y015597D01*
X006510Y015836D02*
X005770Y015836D01*
X005770Y016074D02*
X006510Y016074D01*
X006510Y016313D02*
X005770Y016313D01*
X005770Y016551D02*
X006510Y016551D01*
X006100Y016333D02*
X006100Y015583D01*
X005975Y015458D01*
X004930Y015836D02*
X003635Y015836D01*
X003635Y016074D02*
X004930Y016074D01*
X004930Y016313D02*
X003635Y016313D01*
X003634Y016551D02*
X004930Y016551D01*
X004930Y016790D02*
X001320Y016790D01*
X001320Y017028D02*
X002653Y017028D01*
X002565Y017267D02*
X001320Y017267D01*
X001320Y017505D02*
X002565Y017505D01*
X002565Y017744D02*
X001320Y017744D01*
X001320Y017982D02*
X002565Y017982D01*
X002565Y018221D02*
X001320Y018221D01*
X001320Y018459D02*
X002565Y018459D01*
X002448Y018563D02*
X002620Y018736D01*
X002714Y018961D01*
X002714Y019205D01*
X002620Y019431D01*
X002448Y019604D01*
X002222Y019697D01*
X001978Y019697D01*
X001752Y019604D01*
X001580Y019431D01*
X001486Y019205D01*
X001486Y018961D01*
X001580Y018736D01*
X001752Y018563D01*
X001978Y018470D01*
X002222Y018470D01*
X002448Y018563D01*
X002583Y018698D02*
X002587Y018698D01*
X002703Y018936D02*
X004722Y018936D01*
X004484Y018698D02*
X003614Y018698D01*
X003635Y018459D02*
X004245Y018459D01*
X004163Y017896D02*
X003100Y017896D01*
X003635Y017505D02*
X005363Y017505D01*
X005190Y017267D02*
X003635Y017267D01*
X003547Y017028D02*
X004976Y017028D01*
X004770Y015597D02*
X003635Y015597D01*
X003635Y015359D02*
X004532Y015359D01*
X004293Y015120D02*
X003635Y015120D01*
X004441Y014166D02*
X005382Y014166D01*
X006510Y013928D02*
X007690Y013928D01*
X007690Y013973D02*
X007690Y013612D01*
X007719Y013583D01*
X007690Y013554D01*
X007690Y013224D01*
X007293Y013622D01*
X007168Y013673D01*
X006510Y013673D01*
X006510Y013689D02*
X007690Y013689D01*
X007690Y013451D02*
X007463Y013451D01*
X006979Y012974D02*
X006940Y012974D01*
X006921Y012993D02*
X006959Y012993D01*
X007260Y012693D01*
X007260Y012654D01*
X006921Y012993D01*
X007179Y012735D02*
X007217Y012735D01*
X008310Y012833D02*
X008920Y012833D01*
X008920Y012333D02*
X008310Y012333D01*
X008310Y011833D02*
X008920Y011833D01*
X008920Y011333D02*
X008310Y011333D01*
X008310Y010833D02*
X008920Y010833D01*
X008920Y010333D02*
X008310Y010333D01*
X009517Y010589D02*
X009793Y010589D01*
X009540Y010827D02*
X010375Y010827D01*
X010408Y010589D02*
X010614Y010589D01*
X010564Y010350D02*
X010852Y010350D01*
X011350Y010333D02*
X009850Y011833D01*
X009850Y013833D01*
X008850Y014833D01*
X008850Y015833D01*
X008850Y018333D01*
X009100Y018583D01*
X009580Y018698D02*
X009620Y018698D01*
X009620Y018936D02*
X009580Y018936D01*
X009447Y019175D02*
X009753Y019175D01*
X010100Y018583D02*
X009850Y018333D01*
X009850Y015833D01*
X009850Y014583D01*
X010350Y014083D01*
X010350Y012083D01*
X011600Y010833D01*
X012780Y010833D01*
X012780Y010333D02*
X011350Y010333D01*
X010600Y009833D02*
X012780Y009833D01*
X013400Y009873D02*
X013802Y009873D01*
X013579Y010112D02*
X013400Y010112D01*
X013400Y010350D02*
X013530Y010350D01*
X013593Y010589D02*
X013377Y010589D01*
X013400Y010827D02*
X013884Y010827D01*
X013598Y011066D02*
X013389Y011066D01*
X013400Y011304D02*
X013530Y011304D01*
X013574Y011543D02*
X013400Y011543D01*
X013400Y011781D02*
X013773Y011781D01*
X013628Y012020D02*
X013400Y012020D01*
X013400Y012258D02*
X013530Y012258D01*
X013600Y012833D02*
X013850Y013083D01*
X013600Y012833D02*
X012780Y012833D01*
X012780Y012333D02*
X012100Y012333D01*
X011850Y012583D01*
X011850Y013833D01*
X013100Y015083D01*
X013100Y017083D01*
X013100Y018583D01*
X013580Y018698D02*
X013620Y018698D01*
X013620Y018936D02*
X013580Y018936D01*
X013620Y018939D02*
X013620Y018228D01*
X013693Y018051D01*
X013828Y017916D01*
X014005Y017843D01*
X014196Y017843D01*
X014372Y017916D01*
X014507Y018051D01*
X014580Y018228D01*
X014580Y018939D01*
X014507Y019115D01*
X014372Y019250D01*
X014196Y019323D01*
X014005Y019323D01*
X013828Y019250D01*
X013693Y019115D01*
X013620Y018939D01*
X013753Y019175D02*
X013447Y019175D01*
X012753Y019175D02*
X012447Y019175D01*
X012580Y018936D02*
X012620Y018936D01*
X012620Y018698D02*
X012580Y018698D01*
X012580Y018459D02*
X012620Y018459D01*
X012623Y018221D02*
X012577Y018221D01*
X012438Y017982D02*
X012760Y017982D01*
X012760Y017744D02*
X012190Y017744D01*
X012190Y017505D02*
X012760Y017505D01*
X012760Y017267D02*
X012190Y017267D01*
X012190Y017028D02*
X012760Y017028D01*
X012760Y016790D02*
X012190Y016790D01*
X012190Y016551D02*
X012760Y016551D01*
X012760Y016313D02*
X012339Y016313D01*
X012370Y016074D02*
X012760Y016074D01*
X012760Y015836D02*
X012370Y015836D01*
X012370Y015597D02*
X012760Y015597D01*
X012760Y015359D02*
X012341Y015359D01*
X012190Y015120D02*
X012656Y015120D01*
X012418Y014882D02*
X012190Y014882D01*
X011850Y014583D02*
X011350Y014083D01*
X011350Y012583D01*
X012100Y011833D01*
X012780Y011833D01*
X012780Y011333D02*
X011850Y011333D01*
X010850Y012333D01*
X010850Y015833D01*
X010850Y018333D01*
X011100Y018583D01*
X010620Y018698D02*
X010580Y018698D01*
X010580Y018936D02*
X010620Y018936D01*
X010753Y019175D02*
X010447Y019175D01*
X011447Y019175D02*
X011753Y019175D01*
X011620Y018936D02*
X011580Y018936D01*
X011580Y018698D02*
X011620Y018698D01*
X011850Y018333D02*
X011850Y015833D01*
X011850Y014583D01*
X011510Y014724D02*
X011510Y015138D01*
X011409Y015239D01*
X011350Y015382D01*
X011291Y015239D01*
X011190Y015138D01*
X011190Y014404D01*
X011510Y014724D01*
X011429Y014643D02*
X011190Y014643D01*
X011190Y014405D02*
X011191Y014405D01*
X011190Y014882D02*
X011510Y014882D01*
X011510Y015120D02*
X011190Y015120D01*
X011341Y015359D02*
X011360Y015359D01*
X010510Y015138D02*
X010510Y014404D01*
X010190Y014724D01*
X010190Y015138D01*
X010291Y015239D01*
X010350Y015382D01*
X010409Y015239D01*
X010510Y015138D01*
X010510Y015120D02*
X010190Y015120D01*
X010190Y014882D02*
X010510Y014882D01*
X010510Y014643D02*
X010271Y014643D01*
X010509Y014405D02*
X010510Y014405D01*
X009510Y014654D02*
X009190Y014974D01*
X009190Y015138D01*
X009291Y015239D01*
X009350Y015382D01*
X009409Y015239D01*
X009510Y015138D01*
X009510Y014654D01*
X009510Y014882D02*
X009282Y014882D01*
X009190Y015120D02*
X009510Y015120D01*
X009360Y015359D02*
X009341Y015359D01*
X009350Y016285D02*
X009291Y016428D01*
X009190Y016529D01*
X009190Y017843D01*
X009196Y017843D01*
X009372Y017916D01*
X009507Y018051D01*
X009510Y018059D01*
X009510Y016529D01*
X009409Y016428D01*
X009350Y016285D01*
X009339Y016313D02*
X009362Y016313D01*
X009510Y016551D02*
X009190Y016551D01*
X009190Y016790D02*
X009510Y016790D01*
X009510Y017028D02*
X009190Y017028D01*
X009190Y017267D02*
X009510Y017267D01*
X009510Y017505D02*
X009190Y017505D01*
X009190Y017744D02*
X009510Y017744D01*
X009510Y017982D02*
X009438Y017982D01*
X010190Y017843D02*
X010196Y017843D01*
X010372Y017916D01*
X010507Y018051D01*
X010510Y018059D01*
X010510Y016529D01*
X010409Y016428D01*
X010350Y016285D01*
X010291Y016428D01*
X010190Y016529D01*
X010190Y017843D01*
X010190Y017744D02*
X010510Y017744D01*
X010510Y017982D02*
X010438Y017982D01*
X010510Y017505D02*
X010190Y017505D01*
X010190Y017267D02*
X010510Y017267D01*
X010510Y017028D02*
X010190Y017028D01*
X010190Y016790D02*
X010510Y016790D01*
X010510Y016551D02*
X010190Y016551D01*
X010339Y016313D02*
X010362Y016313D01*
X011190Y016529D02*
X011190Y017843D01*
X011196Y017843D01*
X011372Y017916D01*
X011507Y018051D01*
X011510Y018059D01*
X011510Y016529D01*
X011409Y016428D01*
X011350Y016285D01*
X011291Y016428D01*
X011190Y016529D01*
X011190Y016551D02*
X011510Y016551D01*
X011362Y016313D02*
X011339Y016313D01*
X011190Y016790D02*
X011510Y016790D01*
X011510Y017028D02*
X011190Y017028D01*
X011190Y017267D02*
X011510Y017267D01*
X011510Y017505D02*
X011190Y017505D01*
X011190Y017744D02*
X011510Y017744D01*
X011510Y017982D02*
X011438Y017982D01*
X011850Y018333D02*
X012100Y018583D01*
X013440Y017982D02*
X013762Y017982D01*
X013623Y018221D02*
X013577Y018221D01*
X013580Y018459D02*
X013620Y018459D01*
X013440Y017744D02*
X015260Y017744D01*
X015260Y017982D02*
X014438Y017982D01*
X014577Y018221D02*
X015289Y018221D01*
X015495Y018459D02*
X014580Y018459D01*
X014580Y018698D02*
X015734Y018698D01*
X015972Y018936D02*
X014580Y018936D01*
X014447Y019175D02*
X016211Y019175D01*
X016312Y019276D02*
X016312Y019276D01*
X016508Y019413D02*
X002628Y019413D01*
X002714Y019175D02*
X007753Y019175D01*
X007620Y018936D02*
X005978Y018936D01*
X006299Y018698D02*
X007620Y018698D01*
X007534Y018459D02*
X006498Y018459D01*
X006498Y018221D02*
X007510Y018221D01*
X008190Y017843D02*
X008196Y017843D01*
X008372Y017916D01*
X008507Y018051D01*
X008510Y018059D01*
X008510Y016529D01*
X008409Y016428D01*
X008350Y016285D01*
X008291Y016428D01*
X008190Y016529D01*
X008190Y017843D01*
X008190Y017744D02*
X008510Y017744D01*
X008510Y017982D02*
X008438Y017982D01*
X008510Y017505D02*
X008190Y017505D01*
X008190Y017267D02*
X008510Y017267D01*
X008510Y017028D02*
X008190Y017028D01*
X008190Y016790D02*
X008510Y016790D01*
X008510Y016551D02*
X008190Y016551D01*
X008339Y016313D02*
X008362Y016313D01*
X010341Y015359D02*
X010360Y015359D01*
X012190Y013693D02*
X013250Y014753D01*
X013250Y014447D01*
X013364Y014333D01*
X013250Y014220D01*
X013250Y014173D01*
X013212Y014173D01*
X013087Y014122D01*
X012992Y014026D01*
X012649Y013683D01*
X012289Y013683D01*
X012190Y013584D01*
X012190Y013693D01*
X012190Y013689D02*
X012655Y013689D01*
X012780Y013333D02*
X013280Y013833D01*
X013726Y013833D01*
X013726Y014833D01*
X013292Y014405D02*
X012902Y014405D01*
X012664Y014166D02*
X013196Y014166D01*
X012894Y013928D02*
X012425Y013928D01*
X013141Y014643D02*
X013250Y014643D01*
X013440Y015349D02*
X013440Y016743D01*
X015418Y016743D01*
X015543Y016795D01*
X015638Y016891D01*
X015760Y017013D01*
X015760Y016724D01*
X015603Y016567D01*
X015571Y016599D01*
X014877Y016599D01*
X014850Y016572D01*
X014823Y016599D01*
X014129Y016599D01*
X014000Y016470D01*
X014000Y015697D01*
X014129Y015568D01*
X014136Y015568D01*
X014136Y015349D01*
X014127Y015349D01*
X014100Y015322D01*
X014073Y015349D01*
X013440Y015349D01*
X013440Y015359D02*
X014136Y015359D01*
X014100Y015597D02*
X013440Y015597D01*
X013440Y015836D02*
X014000Y015836D01*
X014000Y016074D02*
X013440Y016074D01*
X013440Y016313D02*
X014000Y016313D01*
X014082Y016551D02*
X013440Y016551D01*
X013100Y017083D02*
X015350Y017083D01*
X015600Y017333D01*
X015600Y018083D01*
X016600Y019083D01*
X018100Y019083D01*
X018600Y018583D01*
X018600Y017833D01*
X018100Y017333D01*
X017850Y017333D01*
X017350Y017314D02*
X017350Y017314D01*
X017350Y017353D01*
X017350Y017353D01*
X017350Y017314D01*
X017350Y016833D02*
X017350Y015833D01*
X017850Y015333D01*
X017350Y015353D02*
X017350Y015126D01*
X017643Y014833D01*
X017350Y014540D01*
X017350Y014126D01*
X017643Y013833D01*
X017350Y013540D01*
X017350Y013126D01*
X017350Y013540D01*
X017057Y013833D01*
X016831Y013833D01*
X016831Y013833D01*
X017057Y013833D01*
X017350Y014126D01*
X017350Y014540D01*
X017057Y014833D01*
X016643Y014833D01*
X016350Y014540D01*
X016350Y014314D01*
X015638Y015026D01*
X015622Y015042D01*
X015748Y015168D01*
X015748Y015498D01*
X015690Y015556D01*
X015690Y015687D01*
X015700Y015697D01*
X015700Y015757D01*
X015793Y015795D01*
X015888Y015891D01*
X016350Y016353D01*
X016350Y016126D01*
X016643Y015833D01*
X016350Y015540D01*
X016350Y015126D01*
X016643Y014833D01*
X017057Y014833D01*
X017350Y015126D01*
X017350Y015353D01*
X017350Y015353D01*
X017344Y015120D02*
X017356Y015120D01*
X017594Y014882D02*
X017106Y014882D01*
X017247Y014643D02*
X017453Y014643D01*
X017350Y014405D02*
X017350Y014405D01*
X017350Y014166D02*
X017350Y014166D01*
X017152Y013928D02*
X017548Y013928D01*
X017643Y013833D02*
X018057Y013833D01*
X017643Y013833D01*
X017499Y013689D02*
X017201Y013689D01*
X017350Y013451D02*
X017350Y013451D01*
X017350Y013212D02*
X017350Y013212D01*
X017198Y012974D02*
X017502Y012974D01*
X017545Y012735D02*
X017155Y012735D01*
X017350Y012497D02*
X017350Y012497D01*
X017350Y012258D02*
X017350Y012258D01*
X017244Y012020D02*
X017456Y012020D01*
X017591Y011781D02*
X017109Y011781D01*
X016591Y011781D02*
X014927Y011781D01*
X015072Y012020D02*
X016456Y012020D01*
X016350Y012258D02*
X015170Y012258D01*
X015145Y012497D02*
X016350Y012497D01*
X016545Y012735D02*
X014983Y012735D01*
X014814Y012974D02*
X016502Y012974D01*
X016350Y013212D02*
X014814Y013212D01*
X014950Y013451D02*
X016252Y013451D01*
X016013Y013689D02*
X014950Y013689D01*
X014950Y013928D02*
X015775Y013928D01*
X015536Y014166D02*
X014950Y014166D01*
X014908Y014405D02*
X015298Y014405D01*
X015350Y014833D02*
X014474Y014833D01*
X014476Y014835D01*
X014476Y016083D01*
X014850Y015595D02*
X014877Y015568D01*
X015010Y015568D01*
X015010Y015556D01*
X014952Y015498D01*
X014952Y015173D01*
X014950Y015173D01*
X014950Y015220D01*
X014821Y015349D01*
X014816Y015349D01*
X014816Y015568D01*
X014823Y015568D01*
X014850Y015595D01*
X014816Y015359D02*
X014952Y015359D01*
X015350Y015333D02*
X015350Y015833D01*
X015224Y016083D01*
X015600Y016083D01*
X016100Y016583D01*
X016100Y017583D01*
X016850Y018333D01*
X016831Y017833D02*
X016869Y017833D01*
X016831Y017833D01*
X016831Y017833D01*
X016869Y017833D02*
X016869Y017833D01*
X017350Y018314D02*
X017350Y018540D01*
X017553Y018743D01*
X017147Y018743D01*
X017350Y018540D01*
X017350Y018314D01*
X017350Y018314D01*
X017350Y018459D02*
X017350Y018459D01*
X017193Y018698D02*
X017507Y018698D01*
X017850Y018333D02*
X016850Y017333D01*
X017350Y016833D01*
X016869Y016833D02*
X016643Y016833D01*
X016440Y016630D01*
X016440Y017036D01*
X016643Y016833D01*
X016869Y016833D01*
X016869Y016833D01*
X016599Y016790D02*
X016440Y016790D01*
X016440Y017028D02*
X016448Y017028D01*
X016350Y016313D02*
X016310Y016313D01*
X016402Y016074D02*
X016072Y016074D01*
X015833Y015836D02*
X016640Y015836D01*
X016643Y015833D02*
X017010Y015833D01*
X017010Y015833D01*
X016643Y015833D01*
X016407Y015597D02*
X015690Y015597D01*
X015748Y015359D02*
X016350Y015359D01*
X016356Y015120D02*
X015700Y015120D01*
X015638Y015026D02*
X015638Y015026D01*
X015782Y014882D02*
X016594Y014882D01*
X016453Y014643D02*
X016021Y014643D01*
X016259Y014405D02*
X016350Y014405D01*
X015350Y014833D02*
X016850Y013333D01*
X018057Y013833D02*
X018137Y013753D01*
X018176Y013753D01*
X018180Y013757D01*
X018180Y013956D01*
X018057Y013833D01*
X018152Y013928D02*
X018180Y013928D01*
X018180Y014710D02*
X018057Y014833D01*
X017643Y014833D01*
X018057Y014833D01*
X018180Y014956D01*
X018180Y014710D01*
X018180Y014882D02*
X018106Y014882D01*
X018180Y015710D02*
X018057Y015833D01*
X017831Y015833D01*
X017831Y015833D01*
X018057Y015833D01*
X018137Y015913D01*
X018176Y015913D01*
X018180Y015909D01*
X018180Y015710D01*
X018180Y015836D02*
X018060Y015836D01*
X018726Y016551D02*
X020565Y016551D01*
X020565Y016313D02*
X018960Y016313D01*
X019020Y016074D02*
X020565Y016074D01*
X020565Y015836D02*
X019020Y015836D01*
X019020Y015597D02*
X020565Y015597D01*
X020565Y015359D02*
X019020Y015359D01*
X019020Y015120D02*
X020565Y015120D01*
X020565Y014882D02*
X019020Y014882D01*
X019020Y014643D02*
X020565Y014643D01*
X020565Y014405D02*
X019020Y014405D01*
X019020Y014166D02*
X020565Y014166D01*
X020565Y013928D02*
X019020Y013928D01*
X019020Y013689D02*
X020565Y013689D01*
X020565Y013451D02*
X019000Y013451D01*
X018823Y013212D02*
X020565Y013212D01*
X020565Y012974D02*
X018580Y012974D01*
X018155Y012735D02*
X020565Y012735D01*
X020565Y012497D02*
X018350Y012497D01*
X018350Y012258D02*
X020565Y012258D01*
X020565Y012020D02*
X018244Y012020D01*
X018109Y011781D02*
X020565Y011781D01*
X020565Y011543D02*
X018348Y011543D01*
X018350Y011304D02*
X020565Y011304D01*
X020565Y011066D02*
X018290Y011066D01*
X014474Y012457D02*
X014350Y012333D01*
X014474Y012457D02*
X014474Y013833D01*
X014100Y014322D02*
X014088Y014333D01*
X014100Y014345D01*
X014112Y014333D01*
X014100Y014322D01*
X013522Y013318D02*
X013400Y013318D01*
X013400Y013173D01*
X013452Y013173D01*
X013452Y013248D01*
X013522Y013318D01*
X013452Y013212D02*
X013400Y013212D01*
X010137Y011066D02*
X009529Y011066D01*
X009540Y011304D02*
X009898Y011304D01*
X009660Y011543D02*
X009540Y011543D01*
X007690Y013973D02*
X007496Y014166D01*
X005890Y011833D02*
X004850Y011833D01*
X004100Y011083D01*
X004100Y009333D01*
X004850Y008583D01*
X005350Y008833D02*
X005350Y007583D01*
X004600Y006833D01*
X005690Y007654D02*
X005690Y008901D01*
X005638Y009026D01*
X005543Y009122D01*
X005229Y009435D01*
X005265Y009435D01*
X005498Y009668D01*
X005498Y009983D01*
X005890Y009983D01*
X005890Y010333D01*
X005890Y010333D01*
X005890Y009983D01*
X006260Y009983D01*
X006260Y008224D01*
X005690Y007654D01*
X005690Y007727D02*
X005763Y007727D01*
X005690Y007965D02*
X006001Y007965D01*
X006240Y008204D02*
X005690Y008204D01*
X005690Y008442D02*
X006260Y008442D01*
X006260Y008681D02*
X005690Y008681D01*
X005682Y008919D02*
X006260Y008919D01*
X006260Y009158D02*
X005506Y009158D01*
X005268Y009396D02*
X006260Y009396D01*
X006260Y009635D02*
X005465Y009635D01*
X005498Y009873D02*
X006260Y009873D01*
X005890Y010112D02*
X005890Y010112D01*
X005890Y010333D02*
X005440Y010333D01*
X005440Y010333D01*
X005890Y010333D01*
X005890Y010333D01*
X005850Y010333D01*
X005850Y009333D01*
X005350Y008833D02*
X004600Y009583D01*
X004600Y010833D01*
X005100Y011333D01*
X005890Y011333D01*
X005890Y010833D02*
X005350Y010833D01*
X005100Y010583D01*
X005100Y009833D01*
X002532Y015359D02*
X001320Y015359D01*
X001320Y015597D02*
X002565Y015597D01*
X002565Y015836D02*
X001320Y015836D01*
X001320Y016074D02*
X002565Y016074D01*
X002565Y016313D02*
X001320Y016313D01*
X001320Y016551D02*
X002566Y016551D01*
X001618Y018698D02*
X001320Y018698D01*
X001320Y018936D02*
X001497Y018936D01*
X001486Y019175D02*
X001320Y019175D01*
X001320Y019413D02*
X001573Y019413D01*
X001320Y019652D02*
X001869Y019652D01*
X002331Y019652D02*
X020565Y019652D01*
X020565Y019413D02*
X020053Y019413D01*
X019972Y019447D02*
X020198Y019354D01*
X020370Y019181D01*
X020464Y018955D01*
X020464Y018711D01*
X020370Y018486D01*
X020198Y018313D01*
X019972Y018220D01*
X019728Y018220D01*
X019502Y018313D01*
X019330Y018486D01*
X019236Y018711D01*
X019236Y018955D01*
X019330Y019181D01*
X019502Y019354D01*
X019728Y019447D01*
X019972Y019447D01*
X019647Y019413D02*
X018192Y019413D01*
X018489Y019175D02*
X019327Y019175D01*
X019236Y018936D02*
X018728Y018936D01*
X018921Y018698D02*
X019242Y018698D01*
X019356Y018459D02*
X018940Y018459D01*
X018940Y018221D02*
X019725Y018221D01*
X019975Y018221D02*
X020565Y018221D01*
X020565Y018459D02*
X020344Y018459D01*
X020458Y018698D02*
X020565Y018698D01*
X020565Y018936D02*
X020464Y018936D01*
X020373Y019175D02*
X020565Y019175D01*
X020565Y017982D02*
X018940Y017982D01*
X018931Y017744D02*
X020565Y017744D01*
X020565Y017505D02*
X018753Y017505D01*
X018514Y017267D02*
X020565Y017267D01*
X020565Y017028D02*
X018252Y017028D01*
X018101Y016790D02*
X020565Y016790D01*
X018260Y017974D02*
X018088Y017802D01*
X018057Y017833D01*
X017831Y017833D01*
X018057Y017833D01*
X018260Y018036D01*
X018260Y017974D01*
X018260Y017982D02*
X018206Y017982D01*
X017831Y017833D02*
X017831Y017833D01*
X016350Y018314D02*
X015940Y017904D01*
X015940Y017943D01*
X016350Y018353D01*
X016350Y018314D01*
X016257Y018221D02*
X016218Y018221D01*
X016018Y017982D02*
X015980Y017982D01*
X015260Y017505D02*
X013440Y017505D01*
X015530Y016790D02*
X015760Y016790D01*
X008753Y019175D02*
X008447Y019175D01*
X008580Y018936D02*
X008620Y018936D01*
X008620Y018698D02*
X008580Y018698D01*
X011748Y007965D02*
X014010Y007965D01*
X014010Y007727D02*
X011748Y007727D01*
X011690Y007488D02*
X014010Y007488D01*
X014010Y007250D02*
X011690Y007250D01*
X011690Y007011D02*
X012797Y007011D01*
X012559Y006773D02*
X011891Y006773D01*
X012130Y006534D02*
X012320Y006534D01*
X004973Y002241D02*
X004727Y002241D01*
X020537Y001764D02*
X020565Y001764D01*
D21*
X017850Y010333D02*
X016850Y010333D01*
X016850Y011333D01*
X014350Y011333D01*
X016850Y011333D02*
X017850Y011333D01*
X017850Y010333D01*
X017850Y013333D02*
X018350Y013333D01*
X018600Y013583D01*
X018600Y016083D01*
X018350Y016333D01*
X017850Y016333D01*
X007350Y016833D02*
X006850Y016833D01*
X006850Y017083D01*
X006600Y017333D01*
X006100Y017333D01*
X005850Y017333D01*
X005350Y016833D01*
X005350Y015583D01*
X004350Y014583D01*
X003350Y014583D01*
X003100Y015333D02*
X003100Y015770D01*
X003100Y015333D02*
X002100Y014333D01*
X002100Y011318D01*
D22*
X003100Y010318D01*
X003100Y004583D01*
X003350Y004333D01*
X003350Y001583D01*
D23*
X005100Y002833D03*
X005100Y003333D03*
X004350Y004083D03*
X004850Y005083D03*
X005850Y005833D03*
X005100Y006333D03*
X004100Y006833D03*
X004100Y008583D03*
X005100Y009833D03*
X005850Y009333D03*
X008100Y009333D03*
X008100Y009833D03*
X010100Y010333D03*
X011310Y009374D03*
X011350Y007833D03*
X008100Y007583D03*
X007600Y006833D03*
X009100Y004083D03*
X006600Y003333D03*
X006600Y002583D03*
X012600Y004333D03*
X013100Y004833D03*
X015350Y008583D03*
X019600Y010083D03*
X015350Y015333D03*
X013850Y013083D03*
X007350Y016833D03*
X006100Y016333D03*
X006100Y018333D03*
X003350Y014583D03*
X006850Y014083D03*
M02*
