G75*
%MOIN*%
%OFA0B0*%
%FSLAX24Y24*%
%IPPOS*%
%LPD*%
%AMOC8*
5,1,8,0,0,1.08239X$1,22.5*
%
%ADD10C,0.0000*%
%ADD11C,0.0080*%
%ADD12C,0.0040*%
%ADD13R,0.0300X0.0340*%
%ADD14C,0.0060*%
%ADD15C,0.0020*%
%ADD16C,0.0050*%
%ADD17R,0.0050X0.0200*%
%ADD18R,0.0620X0.0240*%
D10*
X001100Y000333D02*
X001100Y020018D01*
X020785Y020018D01*
X020785Y000333D01*
X001100Y000333D01*
X001706Y003583D02*
X001708Y003622D01*
X001714Y003661D01*
X001724Y003699D01*
X001737Y003736D01*
X001754Y003771D01*
X001774Y003805D01*
X001798Y003836D01*
X001825Y003865D01*
X001854Y003891D01*
X001886Y003914D01*
X001920Y003934D01*
X001956Y003950D01*
X001993Y003962D01*
X002032Y003971D01*
X002071Y003976D01*
X002110Y003977D01*
X002149Y003974D01*
X002188Y003967D01*
X002225Y003956D01*
X002262Y003942D01*
X002297Y003924D01*
X002330Y003903D01*
X002361Y003878D01*
X002389Y003851D01*
X002414Y003821D01*
X002436Y003788D01*
X002455Y003754D01*
X002470Y003718D01*
X002482Y003680D01*
X002490Y003642D01*
X002494Y003603D01*
X002494Y003563D01*
X002490Y003524D01*
X002482Y003486D01*
X002470Y003448D01*
X002455Y003412D01*
X002436Y003378D01*
X002414Y003345D01*
X002389Y003315D01*
X002361Y003288D01*
X002330Y003263D01*
X002297Y003242D01*
X002262Y003224D01*
X002225Y003210D01*
X002188Y003199D01*
X002149Y003192D01*
X002110Y003189D01*
X002071Y003190D01*
X002032Y003195D01*
X001993Y003204D01*
X001956Y003216D01*
X001920Y003232D01*
X001886Y003252D01*
X001854Y003275D01*
X001825Y003301D01*
X001798Y003330D01*
X001774Y003361D01*
X001754Y003395D01*
X001737Y003430D01*
X001724Y003467D01*
X001714Y003505D01*
X001708Y003544D01*
X001706Y003583D01*
X001706Y019083D02*
X001708Y019122D01*
X001714Y019161D01*
X001724Y019199D01*
X001737Y019236D01*
X001754Y019271D01*
X001774Y019305D01*
X001798Y019336D01*
X001825Y019365D01*
X001854Y019391D01*
X001886Y019414D01*
X001920Y019434D01*
X001956Y019450D01*
X001993Y019462D01*
X002032Y019471D01*
X002071Y019476D01*
X002110Y019477D01*
X002149Y019474D01*
X002188Y019467D01*
X002225Y019456D01*
X002262Y019442D01*
X002297Y019424D01*
X002330Y019403D01*
X002361Y019378D01*
X002389Y019351D01*
X002414Y019321D01*
X002436Y019288D01*
X002455Y019254D01*
X002470Y019218D01*
X002482Y019180D01*
X002490Y019142D01*
X002494Y019103D01*
X002494Y019063D01*
X002490Y019024D01*
X002482Y018986D01*
X002470Y018948D01*
X002455Y018912D01*
X002436Y018878D01*
X002414Y018845D01*
X002389Y018815D01*
X002361Y018788D01*
X002330Y018763D01*
X002297Y018742D01*
X002262Y018724D01*
X002225Y018710D01*
X002188Y018699D01*
X002149Y018692D01*
X002110Y018689D01*
X002071Y018690D01*
X002032Y018695D01*
X001993Y018704D01*
X001956Y018716D01*
X001920Y018732D01*
X001886Y018752D01*
X001854Y018775D01*
X001825Y018801D01*
X001798Y018830D01*
X001774Y018861D01*
X001754Y018895D01*
X001737Y018930D01*
X001724Y018967D01*
X001714Y019005D01*
X001708Y019044D01*
X001706Y019083D01*
X019456Y018833D02*
X019458Y018872D01*
X019464Y018911D01*
X019474Y018949D01*
X019487Y018986D01*
X019504Y019021D01*
X019524Y019055D01*
X019548Y019086D01*
X019575Y019115D01*
X019604Y019141D01*
X019636Y019164D01*
X019670Y019184D01*
X019706Y019200D01*
X019743Y019212D01*
X019782Y019221D01*
X019821Y019226D01*
X019860Y019227D01*
X019899Y019224D01*
X019938Y019217D01*
X019975Y019206D01*
X020012Y019192D01*
X020047Y019174D01*
X020080Y019153D01*
X020111Y019128D01*
X020139Y019101D01*
X020164Y019071D01*
X020186Y019038D01*
X020205Y019004D01*
X020220Y018968D01*
X020232Y018930D01*
X020240Y018892D01*
X020244Y018853D01*
X020244Y018813D01*
X020240Y018774D01*
X020232Y018736D01*
X020220Y018698D01*
X020205Y018662D01*
X020186Y018628D01*
X020164Y018595D01*
X020139Y018565D01*
X020111Y018538D01*
X020080Y018513D01*
X020047Y018492D01*
X020012Y018474D01*
X019975Y018460D01*
X019938Y018449D01*
X019899Y018442D01*
X019860Y018439D01*
X019821Y018440D01*
X019782Y018445D01*
X019743Y018454D01*
X019706Y018466D01*
X019670Y018482D01*
X019636Y018502D01*
X019604Y018525D01*
X019575Y018551D01*
X019548Y018580D01*
X019524Y018611D01*
X019504Y018645D01*
X019487Y018680D01*
X019474Y018717D01*
X019464Y018755D01*
X019458Y018794D01*
X019456Y018833D01*
X019706Y001333D02*
X019708Y001372D01*
X019714Y001411D01*
X019724Y001449D01*
X019737Y001486D01*
X019754Y001521D01*
X019774Y001555D01*
X019798Y001586D01*
X019825Y001615D01*
X019854Y001641D01*
X019886Y001664D01*
X019920Y001684D01*
X019956Y001700D01*
X019993Y001712D01*
X020032Y001721D01*
X020071Y001726D01*
X020110Y001727D01*
X020149Y001724D01*
X020188Y001717D01*
X020225Y001706D01*
X020262Y001692D01*
X020297Y001674D01*
X020330Y001653D01*
X020361Y001628D01*
X020389Y001601D01*
X020414Y001571D01*
X020436Y001538D01*
X020455Y001504D01*
X020470Y001468D01*
X020482Y001430D01*
X020490Y001392D01*
X020494Y001353D01*
X020494Y001313D01*
X020490Y001274D01*
X020482Y001236D01*
X020470Y001198D01*
X020455Y001162D01*
X020436Y001128D01*
X020414Y001095D01*
X020389Y001065D01*
X020361Y001038D01*
X020330Y001013D01*
X020297Y000992D01*
X020262Y000974D01*
X020225Y000960D01*
X020188Y000949D01*
X020149Y000942D01*
X020110Y000939D01*
X020071Y000940D01*
X020032Y000945D01*
X019993Y000954D01*
X019956Y000966D01*
X019920Y000982D01*
X019886Y001002D01*
X019854Y001025D01*
X019825Y001051D01*
X019798Y001080D01*
X019774Y001111D01*
X019754Y001145D01*
X019737Y001180D01*
X019724Y001217D01*
X019714Y001255D01*
X019708Y001294D01*
X019706Y001333D01*
D11*
X012350Y010936D02*
X012114Y011330D01*
X012586Y011330D01*
X012350Y010936D01*
X004899Y015784D02*
X004899Y018028D01*
X004545Y018383D01*
X004033Y018383D01*
X003167Y018383D02*
X002655Y018383D01*
X002301Y018028D01*
X002301Y015784D01*
X003167Y015784D01*
X004033Y015784D02*
X004899Y015784D01*
X004700Y015373D02*
X002340Y015373D01*
X003974Y015922D02*
X004039Y015945D01*
X004102Y015971D01*
X004163Y016001D01*
X004223Y016035D01*
X004281Y016071D01*
X004337Y016111D01*
X004390Y016154D01*
X004441Y016200D01*
X004489Y016249D01*
X004534Y016300D01*
X004577Y016354D01*
X004616Y016410D01*
X004652Y016468D01*
X004685Y016529D01*
X004714Y016591D01*
X004740Y016654D01*
X004762Y016719D01*
X004781Y016785D01*
X004795Y016852D01*
X004806Y016919D01*
X004813Y016988D01*
X004817Y017056D01*
X004816Y017125D01*
X004812Y017193D01*
X004803Y017261D01*
X004791Y017328D01*
X004776Y017395D01*
X004756Y017461D01*
X004733Y017525D01*
X004706Y017588D01*
X004675Y017650D01*
X004642Y017709D01*
X004605Y017767D01*
X004564Y017822D01*
X004521Y017875D01*
X004475Y017926D01*
X004426Y017974D01*
X004374Y018019D01*
X004320Y018061D01*
X004264Y018100D01*
X004205Y018136D01*
X004145Y018168D01*
X004083Y018197D01*
X004019Y018223D01*
X003954Y018244D01*
X003226Y018244D02*
X003161Y018221D01*
X003098Y018195D01*
X003037Y018165D01*
X002977Y018131D01*
X002919Y018095D01*
X002863Y018055D01*
X002810Y018012D01*
X002759Y017966D01*
X002711Y017917D01*
X002666Y017866D01*
X002623Y017812D01*
X002584Y017756D01*
X002548Y017698D01*
X002515Y017637D01*
X002486Y017575D01*
X002460Y017512D01*
X002438Y017447D01*
X002419Y017381D01*
X002405Y017314D01*
X002394Y017247D01*
X002387Y017178D01*
X002383Y017110D01*
X002384Y017041D01*
X002388Y016973D01*
X002397Y016905D01*
X002409Y016838D01*
X002424Y016771D01*
X002444Y016705D01*
X002467Y016641D01*
X002494Y016578D01*
X002525Y016516D01*
X002558Y016457D01*
X002595Y016399D01*
X002636Y016344D01*
X002679Y016291D01*
X002725Y016240D01*
X002774Y016192D01*
X002826Y016147D01*
X002880Y016105D01*
X002936Y016066D01*
X002995Y016030D01*
X003055Y015998D01*
X003117Y015969D01*
X003181Y015943D01*
X003246Y015922D01*
X004700Y015373D02*
X004700Y012793D01*
X002340Y012793D01*
D12*
X003756Y015603D02*
X004063Y015603D01*
X003909Y015603D02*
X003909Y016064D01*
X004063Y015910D01*
X004216Y015987D02*
X004293Y016064D01*
X004446Y016064D01*
X004523Y015987D01*
X004523Y015680D01*
X004446Y015603D01*
X004293Y015603D01*
X004216Y015680D01*
X004677Y015603D02*
X004830Y015603D01*
X004753Y015603D02*
X004753Y016064D01*
X004677Y016064D02*
X004830Y016064D01*
X005049Y015999D02*
X005049Y015845D01*
X005126Y015769D01*
X005433Y015769D01*
X005510Y015845D01*
X005510Y015999D01*
X005433Y016076D01*
X005433Y016229D02*
X005510Y016306D01*
X005510Y016459D01*
X005433Y016536D01*
X005356Y016536D01*
X005279Y016459D01*
X005203Y016536D01*
X005126Y016536D01*
X005049Y016459D01*
X005049Y016306D01*
X005126Y016229D01*
X005126Y016076D02*
X005049Y015999D01*
X005279Y016383D02*
X005279Y016459D01*
X005004Y016933D02*
X004697Y016933D01*
X004620Y017009D01*
X004620Y017163D01*
X004697Y017239D01*
X004850Y017393D02*
X004850Y017700D01*
X004620Y017623D02*
X005080Y017623D01*
X004850Y017393D01*
X005004Y017239D02*
X005080Y017163D01*
X005080Y017009D01*
X005004Y016933D01*
X012820Y011271D02*
X012820Y010964D01*
X012820Y011117D02*
X013280Y011117D01*
X013127Y010964D01*
X013204Y010810D02*
X012897Y010810D01*
X012820Y010734D01*
X012820Y010503D01*
X013280Y010503D01*
X013280Y010734D01*
X013204Y010810D01*
D13*
X004890Y014083D03*
D14*
X010130Y009483D02*
X010130Y005183D01*
X010132Y005160D01*
X010137Y005137D01*
X010146Y005115D01*
X010159Y005095D01*
X010174Y005077D01*
X010192Y005062D01*
X010212Y005049D01*
X010234Y005040D01*
X010257Y005035D01*
X010280Y005033D01*
X011100Y005033D01*
X012100Y005033D01*
X012920Y005033D01*
X012943Y005035D01*
X012966Y005040D01*
X012988Y005049D01*
X013008Y005062D01*
X013026Y005077D01*
X013041Y005095D01*
X013054Y005115D01*
X013063Y005137D01*
X013068Y005160D01*
X013070Y005183D01*
X013070Y009483D01*
X013068Y009506D01*
X013063Y009529D01*
X013054Y009551D01*
X013041Y009571D01*
X013026Y009589D01*
X013008Y009604D01*
X012988Y009617D01*
X012966Y009626D01*
X012943Y009631D01*
X012920Y009633D01*
X010280Y009633D01*
X010257Y009631D01*
X010234Y009626D01*
X010212Y009617D01*
X010192Y009604D01*
X010174Y009589D01*
X010159Y009571D01*
X010146Y009551D01*
X010137Y009529D01*
X010132Y009506D01*
X010130Y009483D01*
X008470Y008583D02*
X008050Y008583D01*
X007650Y008583D01*
X007230Y008583D01*
X007207Y008581D01*
X007184Y008576D01*
X007162Y008567D01*
X007142Y008554D01*
X007124Y008539D01*
X007109Y008521D01*
X007096Y008501D01*
X007087Y008479D01*
X007082Y008456D01*
X007080Y008433D01*
X007650Y008583D02*
X007652Y008556D01*
X007657Y008529D01*
X007667Y008503D01*
X007679Y008479D01*
X007695Y008457D01*
X007713Y008437D01*
X007735Y008420D01*
X007758Y008405D01*
X007783Y008395D01*
X007809Y008387D01*
X007836Y008383D01*
X007864Y008383D01*
X007891Y008387D01*
X007917Y008395D01*
X007942Y008405D01*
X007965Y008420D01*
X007987Y008437D01*
X008005Y008457D01*
X008021Y008479D01*
X008033Y008503D01*
X008043Y008529D01*
X008048Y008556D01*
X008050Y008583D01*
X008470Y008583D02*
X008493Y008581D01*
X008516Y008576D01*
X008538Y008567D01*
X008558Y008554D01*
X008576Y008539D01*
X008591Y008521D01*
X008604Y008501D01*
X008613Y008479D01*
X008618Y008456D01*
X008620Y008433D01*
X011100Y005033D02*
X011102Y005077D01*
X011108Y005120D01*
X011117Y005162D01*
X011130Y005204D01*
X011147Y005244D01*
X011167Y005283D01*
X011190Y005320D01*
X011217Y005354D01*
X011246Y005387D01*
X011279Y005416D01*
X011313Y005443D01*
X011350Y005466D01*
X011389Y005486D01*
X011429Y005503D01*
X011471Y005516D01*
X011513Y005525D01*
X011556Y005531D01*
X011600Y005533D01*
X011644Y005531D01*
X011687Y005525D01*
X011729Y005516D01*
X011771Y005503D01*
X011811Y005486D01*
X011850Y005466D01*
X011887Y005443D01*
X011921Y005416D01*
X011954Y005387D01*
X011983Y005354D01*
X012010Y005320D01*
X012033Y005283D01*
X012053Y005244D01*
X012070Y005204D01*
X012083Y005162D01*
X012092Y005120D01*
X012098Y005077D01*
X012100Y005033D01*
X008620Y004733D02*
X008618Y004710D01*
X008613Y004687D01*
X008604Y004665D01*
X008591Y004645D01*
X008576Y004627D01*
X008558Y004612D01*
X008538Y004599D01*
X008516Y004590D01*
X008493Y004585D01*
X008470Y004583D01*
X007230Y004583D01*
X007207Y004585D01*
X007184Y004590D01*
X007162Y004599D01*
X007142Y004612D01*
X007124Y004627D01*
X007109Y004645D01*
X007096Y004665D01*
X007087Y004687D01*
X007082Y004710D01*
X007080Y004733D01*
D15*
X008480Y004583D02*
X008480Y008583D01*
X010270Y009633D02*
X010270Y005033D01*
D16*
X010360Y004909D02*
X010285Y004834D01*
X010285Y004759D01*
X010585Y004458D01*
X010285Y004458D01*
X010360Y004909D02*
X010510Y004909D01*
X010585Y004834D01*
X010746Y004834D02*
X010821Y004909D01*
X010971Y004909D01*
X011046Y004834D01*
X011046Y004759D01*
X010971Y004684D01*
X010821Y004684D01*
X010746Y004608D01*
X010746Y004533D01*
X010821Y004458D01*
X010971Y004458D01*
X011046Y004533D01*
X011206Y004533D02*
X011281Y004458D01*
X011431Y004458D01*
X011506Y004533D01*
X011506Y004909D01*
X011206Y004909D02*
X011206Y004533D01*
X010896Y004383D02*
X010896Y004984D01*
X008575Y008758D02*
X008425Y008758D01*
X008500Y008758D02*
X008500Y009209D01*
X008575Y009209D02*
X008425Y009209D01*
X008268Y009134D02*
X008268Y008833D01*
X008193Y008758D01*
X008043Y008758D01*
X007968Y008833D01*
X007808Y008833D02*
X007733Y008758D01*
X007583Y008758D01*
X007508Y008833D01*
X007508Y008908D01*
X007583Y008984D01*
X007658Y008984D01*
X007583Y008984D02*
X007508Y009059D01*
X007508Y009134D01*
X007583Y009209D01*
X007733Y009209D01*
X007808Y009134D01*
X007968Y009134D02*
X008043Y009209D01*
X008193Y009209D01*
X008268Y009134D01*
D17*
X010105Y009333D03*
X010105Y008833D03*
X010105Y008333D03*
X010105Y007833D03*
X010105Y007333D03*
X010105Y006833D03*
X010105Y006333D03*
X010105Y005833D03*
X010105Y005333D03*
X013095Y005333D03*
X013095Y005833D03*
X013095Y006333D03*
X013095Y006833D03*
X013095Y007333D03*
X013095Y007833D03*
X013095Y008333D03*
X013095Y008833D03*
X013095Y009333D03*
D18*
X012350Y010863D03*
M02*
