%
M48
M72
T01C0.0236
T02C0.0320
T03C0.0360
T04C0.0400
T05C0.0470
T06C0.0787
%
T01
X4350Y4083
X5100Y3333
X5100Y2833
X6600Y2583
X6600Y3333
X4850Y5083
X5850Y5833
X5100Y6333
X4100Y6833
X4100Y8583
X5100Y9833
X5850Y9333
X8100Y9333
X8100Y9833
X10100Y10333
X11310Y9374
X11350Y7833
X8100Y7583
X7600Y6833
X9100Y4083
X12600Y4333
X13100Y4833
X15350Y8583
X19600Y10083
X15350Y15333
X13850Y13083
X7350Y16833
X6100Y16333
X6100Y18333
X3350Y14583
X6850Y14083
T02
X8100Y18583
X9100Y18583
X10100Y18583
X11100Y18583
X12100Y18583
X13100Y18583
X14100Y18583
T03
X16850Y3333
X16850Y2333
X17850Y2333
X17850Y3333
X17850Y4333
X16850Y4333
X16850Y5333
X16850Y6333
X17850Y6333
X17850Y5333
X17850Y7333
X16850Y7333
X16850Y8333
X17850Y8333
X17850Y9333
X16850Y9333
X16850Y10333
X17850Y10333
X17850Y11333
X16850Y11333
X16850Y12333
X17850Y12333
X17850Y13333
X16850Y13333
X16850Y14333
X16850Y15333
X17850Y15333
X17850Y14333
X17850Y16333
X16850Y16333
X16850Y17333
X17850Y17333
X17850Y18333
X16850Y18333
T04
X2350Y1583
X3350Y1583
X4350Y1583
X5350Y1583
X6350Y1583
X7350Y1583
X8350Y1583
X7850Y15833
X8850Y15833
X9850Y15833
X10850Y15833
X11850Y15833
X14350Y12333
X14350Y11333
X14350Y10333
T05
X2100Y9349
X2100Y11318
T06
X2100Y3583
X2100Y19083
X19850Y18833
X20100Y1333
M30
