G75*
%MOIN*%
%OFA0B0*%
%FSLAX24Y24*%
%IPPOS*%
%LPD*%
%AMOC8*
5,1,8,0,0,1.08239X$1,22.5*
%
%ADD10C,0.0000*%
%ADD11C,0.0827*%
%ADD12C,0.0745*%
%ADD13R,0.0670X0.1418*%
%ADD14R,0.0434X0.0473*%
%ADD15R,0.0840X0.0300*%
%ADD16R,0.0473X0.0434*%
%ADD17OC8,0.0600*%
%ADD18C,0.0640*%
%ADD19R,0.0552X0.0631*%
%ADD20C,0.0560*%
D10*
X001100Y000333D02*
X001100Y020018D01*
X020785Y020018D01*
X020785Y000333D01*
X001100Y000333D01*
X001706Y003583D02*
X001708Y003622D01*
X001714Y003661D01*
X001724Y003699D01*
X001737Y003736D01*
X001754Y003771D01*
X001774Y003805D01*
X001798Y003836D01*
X001825Y003865D01*
X001854Y003891D01*
X001886Y003914D01*
X001920Y003934D01*
X001956Y003950D01*
X001993Y003962D01*
X002032Y003971D01*
X002071Y003976D01*
X002110Y003977D01*
X002149Y003974D01*
X002188Y003967D01*
X002225Y003956D01*
X002262Y003942D01*
X002297Y003924D01*
X002330Y003903D01*
X002361Y003878D01*
X002389Y003851D01*
X002414Y003821D01*
X002436Y003788D01*
X002455Y003754D01*
X002470Y003718D01*
X002482Y003680D01*
X002490Y003642D01*
X002494Y003603D01*
X002494Y003563D01*
X002490Y003524D01*
X002482Y003486D01*
X002470Y003448D01*
X002455Y003412D01*
X002436Y003378D01*
X002414Y003345D01*
X002389Y003315D01*
X002361Y003288D01*
X002330Y003263D01*
X002297Y003242D01*
X002262Y003224D01*
X002225Y003210D01*
X002188Y003199D01*
X002149Y003192D01*
X002110Y003189D01*
X002071Y003190D01*
X002032Y003195D01*
X001993Y003204D01*
X001956Y003216D01*
X001920Y003232D01*
X001886Y003252D01*
X001854Y003275D01*
X001825Y003301D01*
X001798Y003330D01*
X001774Y003361D01*
X001754Y003395D01*
X001737Y003430D01*
X001724Y003467D01*
X001714Y003505D01*
X001708Y003544D01*
X001706Y003583D01*
X001706Y019083D02*
X001708Y019122D01*
X001714Y019161D01*
X001724Y019199D01*
X001737Y019236D01*
X001754Y019271D01*
X001774Y019305D01*
X001798Y019336D01*
X001825Y019365D01*
X001854Y019391D01*
X001886Y019414D01*
X001920Y019434D01*
X001956Y019450D01*
X001993Y019462D01*
X002032Y019471D01*
X002071Y019476D01*
X002110Y019477D01*
X002149Y019474D01*
X002188Y019467D01*
X002225Y019456D01*
X002262Y019442D01*
X002297Y019424D01*
X002330Y019403D01*
X002361Y019378D01*
X002389Y019351D01*
X002414Y019321D01*
X002436Y019288D01*
X002455Y019254D01*
X002470Y019218D01*
X002482Y019180D01*
X002490Y019142D01*
X002494Y019103D01*
X002494Y019063D01*
X002490Y019024D01*
X002482Y018986D01*
X002470Y018948D01*
X002455Y018912D01*
X002436Y018878D01*
X002414Y018845D01*
X002389Y018815D01*
X002361Y018788D01*
X002330Y018763D01*
X002297Y018742D01*
X002262Y018724D01*
X002225Y018710D01*
X002188Y018699D01*
X002149Y018692D01*
X002110Y018689D01*
X002071Y018690D01*
X002032Y018695D01*
X001993Y018704D01*
X001956Y018716D01*
X001920Y018732D01*
X001886Y018752D01*
X001854Y018775D01*
X001825Y018801D01*
X001798Y018830D01*
X001774Y018861D01*
X001754Y018895D01*
X001737Y018930D01*
X001724Y018967D01*
X001714Y019005D01*
X001708Y019044D01*
X001706Y019083D01*
X019456Y018833D02*
X019458Y018872D01*
X019464Y018911D01*
X019474Y018949D01*
X019487Y018986D01*
X019504Y019021D01*
X019524Y019055D01*
X019548Y019086D01*
X019575Y019115D01*
X019604Y019141D01*
X019636Y019164D01*
X019670Y019184D01*
X019706Y019200D01*
X019743Y019212D01*
X019782Y019221D01*
X019821Y019226D01*
X019860Y019227D01*
X019899Y019224D01*
X019938Y019217D01*
X019975Y019206D01*
X020012Y019192D01*
X020047Y019174D01*
X020080Y019153D01*
X020111Y019128D01*
X020139Y019101D01*
X020164Y019071D01*
X020186Y019038D01*
X020205Y019004D01*
X020220Y018968D01*
X020232Y018930D01*
X020240Y018892D01*
X020244Y018853D01*
X020244Y018813D01*
X020240Y018774D01*
X020232Y018736D01*
X020220Y018698D01*
X020205Y018662D01*
X020186Y018628D01*
X020164Y018595D01*
X020139Y018565D01*
X020111Y018538D01*
X020080Y018513D01*
X020047Y018492D01*
X020012Y018474D01*
X019975Y018460D01*
X019938Y018449D01*
X019899Y018442D01*
X019860Y018439D01*
X019821Y018440D01*
X019782Y018445D01*
X019743Y018454D01*
X019706Y018466D01*
X019670Y018482D01*
X019636Y018502D01*
X019604Y018525D01*
X019575Y018551D01*
X019548Y018580D01*
X019524Y018611D01*
X019504Y018645D01*
X019487Y018680D01*
X019474Y018717D01*
X019464Y018755D01*
X019458Y018794D01*
X019456Y018833D01*
X019706Y001333D02*
X019708Y001372D01*
X019714Y001411D01*
X019724Y001449D01*
X019737Y001486D01*
X019754Y001521D01*
X019774Y001555D01*
X019798Y001586D01*
X019825Y001615D01*
X019854Y001641D01*
X019886Y001664D01*
X019920Y001684D01*
X019956Y001700D01*
X019993Y001712D01*
X020032Y001721D01*
X020071Y001726D01*
X020110Y001727D01*
X020149Y001724D01*
X020188Y001717D01*
X020225Y001706D01*
X020262Y001692D01*
X020297Y001674D01*
X020330Y001653D01*
X020361Y001628D01*
X020389Y001601D01*
X020414Y001571D01*
X020436Y001538D01*
X020455Y001504D01*
X020470Y001468D01*
X020482Y001430D01*
X020490Y001392D01*
X020494Y001353D01*
X020494Y001313D01*
X020490Y001274D01*
X020482Y001236D01*
X020470Y001198D01*
X020455Y001162D01*
X020436Y001128D01*
X020414Y001095D01*
X020389Y001065D01*
X020361Y001038D01*
X020330Y001013D01*
X020297Y000992D01*
X020262Y000974D01*
X020225Y000960D01*
X020188Y000949D01*
X020149Y000942D01*
X020110Y000939D01*
X020071Y000940D01*
X020032Y000945D01*
X019993Y000954D01*
X019956Y000966D01*
X019920Y000982D01*
X019886Y001002D01*
X019854Y001025D01*
X019825Y001051D01*
X019798Y001080D01*
X019774Y001111D01*
X019754Y001145D01*
X019737Y001180D01*
X019724Y001217D01*
X019714Y001255D01*
X019708Y001294D01*
X019706Y001333D01*
D11*
X020100Y001333D03*
X019850Y018833D03*
X002100Y019083D03*
X002100Y003583D03*
D12*
X002453Y009349D02*
X001748Y009349D01*
X001748Y011318D02*
X002453Y011318D01*
D13*
X003100Y015770D03*
X003100Y017896D03*
D14*
X005350Y017999D03*
X005350Y018668D03*
D15*
X005890Y013833D03*
X005890Y013333D03*
X005890Y012833D03*
X005890Y012333D03*
X005890Y011833D03*
X005890Y011333D03*
X005890Y010833D03*
X005890Y010333D03*
X008310Y010333D03*
X008310Y010833D03*
X008310Y011333D03*
X008310Y011833D03*
X008310Y012333D03*
X008310Y012833D03*
X008310Y013333D03*
X008310Y013833D03*
X008920Y013333D03*
X008920Y012833D03*
X008920Y012333D03*
X008920Y011833D03*
X008920Y011333D03*
X008920Y010833D03*
X008920Y010333D03*
X008920Y009833D03*
X008920Y009333D03*
X010060Y006333D03*
X010060Y005833D03*
X010060Y005333D03*
X010060Y004833D03*
X010060Y004333D03*
X010060Y003833D03*
X010060Y003333D03*
X010060Y002833D03*
X010670Y002833D03*
X010670Y002333D03*
X010670Y001833D03*
X010670Y003333D03*
X010670Y003833D03*
X010670Y004333D03*
X010670Y004833D03*
X010670Y005333D03*
X010670Y005833D03*
X007640Y005833D03*
X007640Y005333D03*
X007640Y004833D03*
X007640Y004333D03*
X007640Y003833D03*
X007640Y003333D03*
X007640Y002833D03*
X007640Y006333D03*
X012780Y009333D03*
X012780Y009833D03*
X012780Y010333D03*
X012780Y010833D03*
X012780Y011333D03*
X012780Y011833D03*
X012780Y012333D03*
X012780Y012833D03*
X012780Y013333D03*
X014530Y005833D03*
X014530Y005333D03*
X014530Y004833D03*
X014530Y004333D03*
X014530Y003833D03*
X014530Y003333D03*
X014530Y002833D03*
X014530Y002333D03*
X014530Y001833D03*
D16*
X009935Y001583D03*
X009265Y001583D03*
X008935Y008583D03*
X008265Y008583D03*
X007435Y014583D03*
X006765Y014583D03*
D17*
X016850Y014333D03*
X016850Y015333D03*
X017850Y015333D03*
X017850Y014333D03*
X017850Y013333D03*
X017850Y012333D03*
X017850Y011333D03*
X017850Y010333D03*
X017850Y009333D03*
X017850Y008333D03*
X017850Y007333D03*
X017850Y006333D03*
X017850Y005333D03*
X017850Y004333D03*
X017850Y003333D03*
X017850Y002333D03*
X016850Y002333D03*
X016850Y003333D03*
X016850Y004333D03*
X016850Y005333D03*
X016850Y006333D03*
X016850Y007333D03*
X016850Y008333D03*
X016850Y009333D03*
X016850Y010333D03*
X016850Y011333D03*
X016850Y012333D03*
X016850Y013333D03*
X016850Y016333D03*
X017850Y016333D03*
X017850Y017333D03*
X016850Y017333D03*
X016850Y018333D03*
X017850Y018333D03*
D18*
X011850Y016133D02*
X011850Y015533D01*
X010850Y015533D02*
X010850Y016133D01*
X009850Y016133D02*
X009850Y015533D01*
X008850Y015533D02*
X008850Y016133D01*
X007850Y016133D02*
X007850Y015533D01*
X014050Y012333D02*
X014650Y012333D01*
X014650Y011333D02*
X014050Y011333D01*
X014050Y010333D02*
X014650Y010333D01*
X008350Y001883D02*
X008350Y001283D01*
X007350Y001283D02*
X007350Y001883D01*
X006350Y001883D02*
X006350Y001283D01*
X005350Y001283D02*
X005350Y001883D01*
X004350Y001883D02*
X004350Y001283D01*
X003350Y001283D02*
X003350Y001883D01*
X002350Y001883D02*
X002350Y001283D01*
D19*
X013726Y013833D03*
X014474Y013833D03*
X014474Y014833D03*
X013726Y014833D03*
X014476Y016083D03*
X015224Y016083D03*
D20*
X014100Y018323D02*
X014100Y018843D01*
X013100Y018843D02*
X013100Y018323D01*
X012100Y018323D02*
X012100Y018843D01*
X011100Y018843D02*
X011100Y018323D01*
X010100Y018323D02*
X010100Y018843D01*
X009100Y018843D02*
X009100Y018323D01*
X008100Y018323D02*
X008100Y018843D01*
M02*
